<?xml version="1.0"?>
<svg xmlns="http://www.w3.org/2000/svg" height="512px" viewBox="0 0 512 512" width="512px" class=""><g><path d="m512 256c0 141.386719-114.613281 256-256 256s-256-114.613281-256-256 114.613281-256 256-256 256 114.613281 256 256zm0 0" fill="#3897ff" data-original="#3897FF" class="active-path" style="fill:#C408A2" data-old_color="#C409A2"/><path d="m186.820312 389.5 117.859376 117.855469c118.101562-22.738281 207.320312-126.617188 207.320312-251.355469 0-4.730469-.136719-9.429688-.390625-14.097656l-89.402344-89.402344zm0 0" fill="#2d79cc" data-original="#2D79CC" class="" style="fill:#6E005A" data-old_color="#6E015A"/><path d="m119.792969 260.859375-30.804688 30.804687 97.832031 97.835938 14.523438-30.808594-14.523438-30.804687zm0 0" fill="#446080" data-original="#446080" class="" style="fill:#FF00CB" data-old_color="#FF00F9"/><path d="m392.207031 122.5-205.386719 205.386719v61.613281l236.191407-236.191406zm0 0" fill="#324860" data-original="#324860" class="" style="fill:#FF00CB" data-old_color="#324860"/></g> </svg>
