<?xml version="1.0"?>
<svg xmlns="http://www.w3.org/2000/svg" xmlns:xlink="http://www.w3.org/1999/xlink" version="1.1" id="Layer_1" x="0px" y="0px" viewBox="0 0 512 512" style="enable-background:new 0 0 512 512;" xml:space="preserve" width="512px" height="512px" class=""><g><circle style="fill:#FD82DB" cx="256" cy="256" r="256" data-original="#A0EBEF" class="" data-old_color="#FD82DC"/><path style="fill:#DD5CAC" d="M511.814,265.297l-94.63-94.63l-159.173-8.332V410.29l86.13,86.13  C439.339,461.509,508.014,371.667,511.814,265.297z" data-original="#71E2EF" class="" data-old_color="#E275B8"/><path style="fill:#A84A89" d="M27.665,371.859C69.946,455.02,156.315,512,256,512c99.683,0,186.052-56.979,228.335-140.14  l-41.674-41.674c-20.989-20.989-55.017-20.989-76.005,0L255.998,440.844L145.341,330.187c-20.989-20.989-55.017-20.989-76.005,0  L27.665,371.859z" data-original="#FF7F4F" class="" data-old_color="#99487E"/><g>
	<path style="fill:#A84A89" d="M145.341,330.187c-10.537-10.537-24.361-15.781-38.172-15.738v149.835   c40.926,29.299,90.834,46.842,144.808,47.675V436.82L145.341,330.187z" data-original="#E06948" class="" data-old_color="#E06948"/>
	<path style="fill:#A84A89" d="M484.335,371.86l-41.674-41.674c-10.888-10.888-25.286-16.113-39.553-15.705v151.007   C437.251,441.466,465.28,409.336,484.335,371.86z" data-original="#E06948" class="" data-old_color="#E06948"/>
</g><rect x="246.519" y="142.222" style="fill:#BD0053" width="28.444" height="199.111" data-original="#EAA22F" class="active-path" data-old_color="#FF0070"/><rect x="259.448" y="142.222" style="fill:#FF00B5" width="15.513" height="199.111" data-original="#FF5419" class="" data-old_color="#FF0049"/><path style="fill:#CD02A4" d="M256,512c68.724,0,131.119-27.086,177.104-71.156L294.002,301.742  c-20.989-20.989-55.017-20.989-76.005,0l-139.1,139.1C124.881,484.914,187.277,512,256,512z" data-original="#D35933" class="" data-old_color="#BD0197"/><path style="fill:#BD0197" d="M294.002,301.742c-9.616-9.616-21.971-14.814-34.554-15.617v225.833  c67.36-0.891,128.441-27.782,173.656-71.115L294.002,301.742z" data-original="#B54324" class="" data-old_color="#BF0198"/><polygon style="fill:#AA0065" points="246.517,85.333 417.183,170.667 246.517,228.992 " data-original="#386895" class="" data-old_color="#A90064"/><polygon style="fill:#9A0148" points="246.517,170.379 246.517,228.992 417.183,170.667 416.609,170.379 " data-original="#273B7A" class="" data-old_color="#B70256"/></g> </svg>
