<?xml version="1.0"?>
<svg xmlns="http://www.w3.org/2000/svg" height="512px" viewBox="-14 -14 512 512" width="512px" class=""><g><path d="m484.800781 242.398438c0 133.875-108.527343 242.402343-242.402343 242.402343-133.871094 0-242.398438-108.527343-242.398438-242.402343 0-133.871094 108.527344-242.398438 242.398438-242.398438 133.875 0 242.402343 108.527344 242.402343 242.398438zm0 0" fill="#ff432e" data-original="#FF432E" class="active-path" style="fill:#FF00BC" data-old_color="#FF432E"/><path d="m484.800781 242.398438c0-6.746094-.289062-13.421876-.832031-20.03125l-145.308594-145.308594-209.363281 241.835937 58.003906 58.003907-41.167969 30.835937 76.238282 76.234375c6.605468.542969 13.285156.832031 20.027344.832031 133.875 0 242.402343-108.527343 242.402343-242.402343zm0 0" fill="#db0404" data-original="#DB0404" class="" style="fill:#790075" data-old_color="#770073"/><path d="m364.804688 512c.035156 0 .03125-.035156.007812-.09375-.027344.058594-.035156.09375-.007812.09375zm0 0" fill="#db0404" data-original="#DB0404" class="" style="fill:#790075" data-old_color="#770073"/><path d="m328.945312 411.890625h-173.089843c-7.433594 0-13.460938-6.027344-13.460938-13.464844v-312.054687c0-7.433594 6.027344-13.460938 13.460938-13.460938h173.089843c7.433594 0 13.460938 6.027344 13.460938 13.460938v312.054687c0 7.4375-6.027344 13.464844-13.460938 13.464844zm0 0" fill="#414952" data-original="#414952"/><path d="m328.945312 72.910156h-86.726562v338.980469h86.726562c7.433594 0 13.460938-6.027344 13.460938-13.464844v-312.054687c0-7.433594-6.027344-13.460938-13.460938-13.460938zm0 0" fill="#23272b" data-original="#23272B"/><path d="m154.023438 95.949219h176.753906v281.539062h-176.753906zm0 0" fill="#4a7aff" data-original="#4A7AFF"/><path d="m242.21875 95.949219h88.558594v281.539062h-88.558594zm0 0" fill="#0053bf" data-original="#0053BF"/><path d="m129.296875 181.800781h226.207031v137.09375h-226.207031zm0 0" fill="#fff" data-original="#FFF"/><path d="m242.21875 181.800781h113.285156v137.09375h-113.285156zm0 0" fill="#e9edf5" data-original="#E9EDF5" class=""/><path d="m355.503906 318.894531-113.285156-73.914062-112.921875 73.914062zm0 0" fill="#e6e6e6" data-original="#E6E6E6" class=""/><path d="m242.21875 244.980469v73.914062h113.285156zm0 0" fill="#d7d7d7" data-original="#D7D7D7" class=""/><path d="m355.503906 181.800781-113.285156 99.921875-112.921875-99.921875zm0 0" fill="#dce1eb" data-original="#DCE1EB" class=""/><path d="m355.503906 181.800781h-113.285156v99.921875zm0 0" fill="#cdd2e1" data-original="#CDD2E1" class="" style="fill:#CDD2E1"/></g> </svg>
