<?xml version="1.0" encoding="UTF-8"?>
<svg width="950px" height="662px" viewBox="0 0 950 662" version="1.1" xmlns="http://www.w3.org/2000/svg" xmlns:xlink="http://www.w3.org/1999/xlink">
    <!-- Generator: Sketch 52.6 (67491) - http://www.bohemiancoding.com/sketch -->
    <title>rep-specta</title>
    <desc>Created with Sketch.</desc>
    <defs>
        <linearGradient x1="49.9827925%" y1="100.013613%" x2="49.9827925%" y2="0.0051937973%" id="linearGradient-1">
            <stop stop-color="#808080" stop-opacity="0.25" offset="0%"></stop>
            <stop stop-color="#808080" stop-opacity="0.12" offset="54%"></stop>
            <stop stop-color="#808080" stop-opacity="0.1" offset="100%"></stop>
        </linearGradient>
        <linearGradient x1="49.5%" y1="61.1480512%" x2="49.5%" y2="39.1480512%" id="linearGradient-2">
            <stop stop-color="#808080" stop-opacity="0.25" offset="0%"></stop>
            <stop stop-color="#808080" stop-opacity="0.12" offset="54%"></stop>
            <stop stop-color="#808080" stop-opacity="0.1" offset="100%"></stop>
        </linearGradient>
        <linearGradient x1="49.9920514%" y1="100.018732%" x2="49.9920514%" y2="0.00740419236%" id="linearGradient-3">
            <stop stop-color="#808080" stop-opacity="0.25" offset="0%"></stop>
            <stop stop-color="#808080" stop-opacity="0.12" offset="54%"></stop>
            <stop stop-color="#808080" stop-opacity="0.1" offset="100%"></stop>
        </linearGradient>
        <linearGradient x1="49.9978047%" y1="99.9941107%" x2="49.9978047%" y2="-3.23460403e-05%" id="linearGradient-4">
            <stop stop-color="#808080" stop-opacity="0.25" offset="0%"></stop>
            <stop stop-color="#808080" stop-opacity="0.12" offset="54%"></stop>
            <stop stop-color="#808080" stop-opacity="0.1" offset="100%"></stop>
        </linearGradient>
    </defs>
    <g id="Page-1" stroke="none" stroke-width="1" fill="none" fill-rule="evenodd">
        <g id="rep-specta" transform="translate(-1.000000, 0.000000)">
            <circle id="Oval" fill="#AD161F" cx="96.13" cy="66.03" r="46.49"></circle>
            <circle id="Oval-Copy" fill="#FFFFFF" cx="111.64" cy="51.54" r="15"></circle>
            <path d="M90.45,160.67 C109.97,204.76 85.07,255.53 55.76,293.76 C45.95,306.58 35.12,320.02 33.76,336.1 C32.12,355.77 45.44,373.85 61.24,385.67 C90.06,407.21 129.42,413.87 163.72,403 C193.36,393.61 218.28,372.4 248.18,363.85 C298.18,349.53 351.18,373.27 394,402.85 C424.31,423.76 456.77,449.24 493.31,444.76 C519.02,441.61 540.84,423.56 555.65,402.31 C562.8,392.05 569.02,380.55 579.43,373.63 C585.62,369.51 592.89,367.33 600.16,365.77 C666.55,351.58 737.01,386.21 802.52,368.4 C846.77,356.4 882.05,321.4 903.99,281.13 C925.93,240.86 936.17,195.39 944.7,150.34 C950.76,118.34 955.79,83.77 941.86,54.34 C927.12,23.18 893,4.29 858.71,0.75 C824.42,-2.79 790.03,6.98 758.44,20.76 C718.97,38.02 680.28,62.18 637.2,62.26 C607.86,62.32 579.88,51.06 551.83,42.47 C504.93,28.12 456.16,20.99 407.56,14.41 C361.03,8.11 314.04,2.25 267.23,5.97 C234.11,8.6 204.86,21.26 172.72,27.12 C151.77,30.94 130.72,28.12 110.16,34.52 C84.84,42.44 58.8,60.79 57.4,89.69 C56.08,117.2 80.1,137.28 90.45,160.67 Z" id="Path" fill="#A00065" opacity="0.1"></path>
            <path d="M602.9,199.93 C598.63,188.8 587.62,162.64 580.37,167.83 C571.21,174.39 589.53,203.37 589.53,203.37 C590.05,208.69 579.75,219.76 574.23,225.28 C574.23,224.84 574.23,224.59 574.23,224.59 C574.177415,224.799905 574.096683,225.001734 573.99,225.19 L573.53,224.94 C573.406991,225.381075 573.184645,225.788138 572.88,226.13 C572.88,225.38 572.83,224.94 572.83,224.94 C571.77,229.43 553.27,235.12 553.27,235.12 C553.27,235.12 552.77,235.12 551.91,235.12 C546.77,235.12 533.39,233.96 527.19,224.04 C523.983323,218.666009 519.880799,213.880295 515.06,209.89 C513.409081,208.596465 511.403529,207.836099 509.31,207.71 C492.18,206.61 478.31,197.94 475.54,196.09 L475.03,195.74 L474.92,196.06 C474.27,195.13 473.64,194.14 473.05,193.12 L472.75,192.57 C481.20517,188.325576 486.558535,179.690619 486.6,170.23 C486.6,170.06 486.6,169.88 486.6,169.71 C488.106951,167.105293 488.900297,164.149219 488.9,161.14 L488.9,158.14 L492.81,154.66 C494.6,153.07 496.45,151.39 497.36,149.2 C497.725458,148.313752 497.88941,147.357368 497.84,146.4 C498.018235,144.732514 497.322407,143.091269 496,142.06 C493,139.99 488,142.06 485.83,139.18 C484.83,137.88 485.01,136.11 484.52,134.58 C483.52,131.47 479.92,129.79 476.59,129.74 C473.26,129.69 470.07,130.9 466.87,131.81 C460.146988,133.718655 453.130581,134.376231 446.17,133.75 C444.287127,133.414894 442.354582,133.483061 440.5,133.95 C438.202598,134.899611 436.494496,136.886208 435.9,139.3 C435.652655,140.194294 435.505089,141.113226 435.46,142.04 C432.670127,145.186705 431.12662,149.244634 431.12,153.45 L431.12,161.14 C431.126071,165.245288 432.597752,169.213508 435.27,172.33 C435.908443,179.653665 439.737946,186.325119 445.74,190.57 C445.74,190.77 445.74,190.973333 445.74,191.18 L445.87,191.26 C445.7083,193.644023 445.340256,196.009543 444.77,198.33 L444.77,197.82 C444.77,197.82 430.77,205.27 415.77,205.45 L414.12,205.45 C411.16114,205.35031 408.283729,206.42934 406.12,208.45 C401.68,212.63 393.9,219.24 389.12,219.24 C388.12,219.24 362.88,224.17 358.7,224.99 L350.89,217.34 L350.65,217.79 L350.19,217.34 C349.335961,217.405937 348.487358,217.529552 347.65,217.71 C343.65,212.97 335.65,201.95 333.8,187.16 C333.8,187.16 351.07,167.49 344.72,149.16 C339.3,133.54 324.37,167.02 320.13,177.11 C319.388279,178.870712 319.296134,180.837656 319.87,182.66 L333.9,227.88 C332.564064,231.384063 332.181052,235.179681 332.79,238.88 L332.63,238.88 L342.85,251.99 C342.85,251.99 350.54,255.27 362.57,255.21 C371.386955,255.224471 380.124838,253.547504 388.31,250.27 L390.68,250.27 L390.23,250.44 L402.4,250.44 L410.14,273.85 C409.88,275.98 406.14,305.71 403.14,312.36 C402.249861,314.581891 401.847449,316.969084 401.96,319.36 C402.11751,323.953774 402.86703,328.508032 404.19,332.91 L410.97,332.66 L410.71,333.19 C404.97,344.96 395.38,365.93 389.71,385.53 L379.84,405.53 L387.24,495.23 L387.54,495.23 L388.11,495.32 C388.91,495.44 390.11,495.62 391.69,495.82 L391.11,496.82 L374.8,523.82 C374.8,523.82 363.17,547.63 388.9,543.14 C388.9,543.14 398.41,540.38 402.29,524.14 L419.21,508.27 C419.21,508.27 420,497.73 415.21,493.52 C414.91,488.65 414.15,474.43 415.32,471.01 C416.73,466.87 409.32,419.26 409.32,419.26 C409.32,419.26 436.1,363.71 452.32,362.33 C453.509007,362.246479 454.702668,362.402914 455.83,362.79 C469.16,367.13 485.31,399.36 490.06,409.39 L490.28,409.85 L490.28,409.94 L490.46,410.33 L490.46,410.44 L490.62,410.78 L490.62,410.87 L490.76,411.18 L490.76,411.25 L490.88,411.5 L490.88,411.6 L490.97,411.79 L490.97,411.87 L491.03,412.01 L491.03,412.09 L491.03,412.18 L491.08,412.3 L493.19,474.75 L493.4,474.86 L493.5,474.86 L493.32,476.15 L492.4,482.6 C492.4,482.6 504.03,507.1 503.32,510.2 C502.61,513.3 511.07,525.73 523.05,522.28 C535.03,518.83 527.9,499.38 527.9,499.38 L516.36,475.6 L515.85,474.54 C516.999508,473.834599 518.083805,473.02807 519.09,472.13 C519.09,472.13 515.57,446.6 519.09,441.08 C522.61,435.56 523.67,410.37 523.67,410.37 C523.67,410.37 521.2,393.12 516.97,385.53 L499.25,322.28 C504.56,327.22 508.69,329.15 512.14,329.02 L512.71,329.02 C514.226543,329.048571 515.723719,328.676001 517.05,327.94 C517.762129,327.538045 518.432148,327.065681 519.05,326.53 C519.167984,326.428284 519.278284,326.317984 519.38,326.2 C524.31,322.06 513.74,305.84 507.75,296.2 C501.98,286.9 509.93,261.63 510.53,259.75 C511.063754,259.358231 511.636843,259.023091 512.24,258.75 C513.480286,258.218592 514.810999,257.930044 516.16,257.9 C521.9,258.1 528.96,261.4 537.7,263.06 C543.773974,264.093174 549.929325,264.571812 556.09,264.49 L556.45,264.49 C558.9,264.49 561.12,264.44 562.92,264.37 C564.562224,264.305409 566.16874,263.871308 567.62,263.1 C568.863874,262.374673 569.990104,261.464247 570.96,260.4 L586.3,243.07 L585.9,243.26 C586.643499,241.294633 586.643499,239.125367 585.9,237.16 L602.11,209.16 C603.767717,206.364988 604.058632,202.966064 602.9,199.93 Z" id="Path" fill="url(#linearGradient-1)"></path>
            <path d="M420.78,505.9 L404.45,521.55 C400.71,537.55 391.52,540.26 391.52,540.26 C366.69,544.68 377.91,521.26 377.91,521.26 L393.66,494.61 L395.6,491.32 C395.6,491.32 406.83,487.92 414.31,489.96 C415.254379,490.218865 416.126764,490.690979 416.86,491.34 C421.55,495.41 420.78,505.9 420.78,505.9 Z" id="Path" fill="#444176"></path>
            <path d="M521.47,519.85 C509.9,523.25 501.74,511.01 502.47,507.94 C503.2,504.87 491.9,480.76 491.9,480.76 L492.78,474.4 L493.6,468.51 L512.6,469.87 L514.39,473.63 L525.53,497.08 C525.53,497.08 533.04,516.45 521.47,519.85 Z" id="Path" fill="#444176"></path>
            <path d="M417.04,494 C415.25,497.07 400.74,495.52 393.67,494.56 L395.61,491.27 C395.61,491.27 406.84,487.87 414.32,489.91 C415.264379,490.168865 416.136764,490.640979 416.87,491.29 C416.97,492.95 417.04,494 417.04,494 Z" id="Path" fill="#000000" opacity="0.1"></path>
            <path d="M514.41,473.61 C504.68,480.09 494.32,475.19 492.76,474.38 L493.58,468.49 L512.58,469.85 L514.41,473.61 Z" id="Path" fill="#000000" opacity="0.1"></path>
            <path d="M517.05,439.57 C513.65,445.01 517.05,470.19 517.05,470.19 C505.82,480.4 492.56,472.91 492.56,472.91 L490.56,411.34 C490.56,411.34 468.45,360.65 452.8,362.01 C437.15,363.37 411.3,418.14 411.3,418.14 C411.3,418.14 418.44,465.08 417.08,469.14 C415.72,473.2 417.08,492.95 417.08,492.95 C414.7,497.03 389.87,492.95 389.87,492.95 L382.73,404.5 L392.21,384.76 C397.66,365.44 406.92,344.76 412.46,333.16 C415.21,327.39 417.05,323.87 417.05,323.87 L435.15,320.1 L493.9,307.92 L515.01,384.76 C519.09,392.24 521.47,409.25 521.47,409.25 C521.47,409.25 520.45,434.13 517.05,439.57 Z" id="Path" fill="#565387"></path>
            <g id="Group" opacity="0.1" transform="translate(382.000000, 307.000000)" fill="#000000">
                <path d="M116,165.91 L114,104.34 C114,104.34 91.89,53.65 76.24,55.01 C75.5403057,55.0781707 74.8517385,55.2326785 74.19,55.47 C89.45,60.54 108.56,104.34 108.56,104.34 L110.56,165.91 C114.732459,168.035641 119.435612,168.894236 124.09,168.38 C121.268673,168.040667 118.529723,167.204424 116,165.91 Z" id="Path"></path>
                <path d="M13.27,185.98 L6.13,97.53 L15.65,77.76 C21.1,58.44 30.36,37.76 35.9,26.16 C38.65,20.39 40.49,16.87 40.49,16.87 L58.59,13.1 L112.22,1.95 L111.93,0.88 L53.15,13.1 L35.05,16.87 C35.05,16.87 33.21,20.39 30.46,26.16 C24.9,37.76 15.66,58.48 10.21,77.76 L0.69,97.49 L7.83,185.94 C7.83,185.94 21.39,188.17 29.43,187.68 C24.0181069,187.386275 18.6245437,186.818882 13.27,185.98 Z" id="Path"></path>
            </g>
            <path d="M353.9,218.97 C353.9,218.97 334.51,219.97 337.23,240.4 L342.67,241.08 L350.83,232.24 L354.91,224.76 L354.91,223.06 L353.9,218.97 Z" id="Path" fill="#CED2DF"></path>
            <path d="M353.9,218.97 C353.9,218.97 334.51,219.97 337.23,240.4 L342.67,241.08 L350.83,232.24 L354.91,224.76 L354.91,223.06 L353.9,218.97 Z" id="Path" fill="#000000" opacity="0.1"></path>
            <path d="M569.61,226.45 C569.61,226.45 585.61,234.95 581.52,244.82 L576.42,246.82 L569.62,243.08 L568.62,234.24 L569.3,228.12 L569.61,226.45 Z" id="Path" fill="#CED2DF"></path>
            <path d="M569.61,226.45 C569.61,226.45 585.61,234.95 581.52,244.82 L576.42,246.82 L569.62,243.08 L568.62,234.24 L569.3,228.12 L569.61,226.45 Z" id="Path" fill="#000000" opacity="0.1"></path>
            <rect id="Rectangle" fill="#88455E" x="432.18" y="138.68" width="55.79" height="42.18" rx="21.09"></rect>
            <path d="M353.77,221.86 L341.86,240.86 L340.86,237.48 L324.68,184.76 C324.12666,182.962823 324.215033,181.029211 324.93,179.29 C329.02,169.35 343.44,136.29 348.67,151.74 C354.79,169.74 338.12,189.16 338.12,189.16 C340.02,204.92 348.87,216.34 352.35,220.3 C353.23,221.33 353.77,221.86 353.77,221.86 Z" id="Path" fill="#EC8C9C"></path>
            <path d="M567.06,230.02 C567.06,230.02 585.77,212.33 585.06,205.19 C585.06,205.19 567.37,176.62 576.22,170.19 C583.22,165.07 593.85,190.87 597.97,201.84 C599.072481,204.797862 598.812641,208.091598 597.26,210.84 L574.9,250.43 L567.06,230.02 Z" id="Path" fill="#EC8C9C"></path>
            <path d="M445.95,180.7 C445.95,180.7 449.35,202.47 439.49,210.64 C429.63,218.81 467.73,218.76 467.73,218.76 L481.34,206.17 C481.34,206.17 465.69,191.54 470.45,180.66 L445.95,180.7 Z" id="Path" fill="#EC8C9C"></path>
            <path d="M445.27,205.53 C445.27,205.53 459.9,216.42 474.52,204.17 L498.33,253.5 L496.97,313.71 C496.97,313.71 447.64,339.22 427.23,323.58 C406.82,307.94 423.83,299.77 423.83,299.77 L419.07,253.51 L424.17,223.57 C424.17,223.57 433.35,209.28 434.04,209.28 C434.73,209.28 445.27,205.53 445.27,205.53 Z" id="Path" fill="#000000" opacity="0.1"></path>
            <path d="M445.27,204.85 C445.27,204.85 459.9,215.76 474.53,203.49 L498.34,252.82 L496.98,313.03 C496.98,313.03 447.65,338.54 427.24,322.9 C406.83,307.26 423.84,299.09 423.84,299.09 L419.08,252.83 L424.18,222.89 C424.18,222.89 433.36,208.6 434.05,208.6 C434.74,208.6 445.27,204.85 445.27,204.85 Z" id="Path" fill="#EBF1F6"></path>
            <path d="M445.27,199.76 C445.27,199.76 431.4,207.66 416.34,207.27 C413.48639,207.180674 410.716206,208.239757 408.65,210.21 C404.36,214.33 396.85,220.85 392.2,220.85 C391.2,220.85 362.26,226.63 362.26,226.63 L354.61,218.98 C354.61,218.98 343.21,241.26 337.77,240.24 L347.64,253.17 C347.64,253.17 366.35,261.33 390.84,251.47 L405.13,251.47 L412.61,274.6 C412.61,274.6 408.87,305.9 405.81,312.7 C402.75,319.5 406.81,332.77 406.81,332.77 L433.68,331.77 C433.68,331.77 435.04,318.5 437.08,316.77 C439.12,315.04 429.94,256.56 429.94,256.56 C429.94,256.56 423.82,223.56 446.27,211.66 L445.27,199.76 Z" id="Path" fill="#000000" opacity="0.1"></path>
            <path d="M435.14,320.14 C434.150495,324.175604 433.44543,328.275676 433.03,332.41 L412.46,333.19 C415.21,327.42 417.05,323.9 417.05,323.9 L435.14,320.14 Z" id="Path" fill="#000000" opacity="0.1"></path>
            <path d="M353.77,221.86 L341.86,240.86 L340.86,237.48 C345.23,233.14 350.35,224.07 352.39,220.29 C353.23,221.33 353.77,221.86 353.77,221.86 Z" id="Path" fill="#000000" opacity="0.1"></path>
            <path d="M445.27,199.76 C445.27,199.76 430.71,207.66 415.66,207.27 C412.80639,207.180674 410.036206,208.239757 407.97,210.21 C403.68,214.33 396.17,220.85 391.52,220.85 C390.52,220.85 361.58,226.63 361.58,226.63 L353.9,218.97 C353.9,218.97 342.5,241.25 337.06,240.23 L346.93,253.16 C346.93,253.16 365.64,261.32 390.13,251.46 L404.42,251.46 L411.9,274.58 C411.9,274.58 408.16,305.88 405.1,312.68 C402.04,319.48 406.1,332.75 406.1,332.75 L432.97,331.75 C432.97,331.75 434.33,318.48 436.37,316.75 C438.41,315.02 429.23,256.54 429.23,256.54 C429.23,256.54 423.11,223.54 445.56,211.64 L445.27,199.76 Z" id="Path" fill="#CED2DF"></path>
            <path d="M474.53,197.7 C474.53,197.7 488.41,208.28 506.94,209.5 C508.967443,209.627214 510.905966,210.378173 512.49,211.65 C517.163326,215.614559 521.123809,220.349552 524.2,225.65 C531.68,237.9 550.05,236.54 550.05,236.54 C550.05,236.54 567.91,230.93 568.93,226.54 C568.93,226.54 569.44,250.54 580.67,244.74 L565.9,261.76 C564.018178,263.933077 561.322218,265.232203 558.45,265.35 C552.9,265.57 543.26,265.64 535.12,264.06 C522.87,261.68 514.03,255.9 507.57,261 C507.57,261 499.07,287.53 504.85,297.06 C510.63,306.59 520.85,322.57 516.08,326.66 C511.31,330.75 505.53,330.4 496.01,320.54 C486.49,310.68 485.46,294.01 485.46,294.01 L487.84,251.15 C487.84,251.15 478.66,218.83 469.84,212.37 L474.53,197.7 Z" id="Path" fill="#000000" opacity="0.1"></path>
            <path d="M582.02,244.31 L567.21,261.4 C566.225741,262.533732 565.007894,263.441147 563.64,264.06 C562.423857,264.608831 561.113228,264.917813 559.78,264.97 C554.23,265.2 544.59,265.27 536.45,263.68 C524.99,261.45 516.51,256.25 510.17,259.76 C509.720618,260.007542 509.29249,260.291845 508.89,260.61 C508.89,260.61 500.39,287.14 506.17,296.67 C511.95,306.2 522.17,322.18 517.4,326.27 C516.601604,326.972193 515.705617,327.554921 514.74,328 C510.46,329.93 505.15,328.26 497.33,320.15 C487.81,310.28 486.78,293.62 486.78,293.62 L489.16,250.76 C489.16,250.76 479.98,218.44 471.16,211.98 L475.05,198.03 C477.73,199.85 491.11,208.4 507.65,209.49 C509.677443,209.617214 511.615966,210.368173 513.2,211.64 C517.872766,215.605115 521.833163,220.340005 524.91,225.64 C532.39,237.89 550.76,236.53 550.76,236.53 C555.163977,235.12507 559.464443,233.41424 563.63,231.41 C566.24,230.13 568.54,228.73 569.63,227.41 C569.93598,227.065248 570.158401,226.654625 570.28,226.21 C570.28,226.21 570.8,250.09 582.02,244.31 Z" id="Path" fill="#000000" opacity="0.1"></path>
            <path d="M581.34,244.65 L566.54,261.76 C565.726161,262.699025 564.750772,263.484754 563.66,264.08 C562.262409,264.838963 560.70911,265.266634 559.12,265.33 C553.57,265.56 543.93,265.63 535.79,264.04 C524.74,261.89 516.45,256.97 510.2,259.78 C509.485893,260.090885 508.813909,260.490716 508.2,260.97 C508.2,260.97 499.7,287.5 505.48,297.03 C511.26,306.56 521.48,322.54 516.71,326.63 C516.093063,327.161079 515.422827,327.626893 514.71,328.02 C510.31,330.45 504.87,329.02 496.62,320.51 C487.1,310.64 486.07,293.98 486.07,293.98 L488.45,251.12 C488.45,251.12 479.27,218.8 470.45,212.34 L474.53,197.71 L475.02,198.05 C477.7,199.87 491.08,208.42 507.62,209.51 C509.647443,209.637214 511.585966,210.388173 513.17,211.66 C517.842766,215.625115 521.803163,220.360005 524.88,225.66 C532.36,237.91 550.73,236.55 550.73,236.55 C555.133977,235.14507 559.434443,233.43424 563.6,231.43 C566.69,229.85 569.21,228.12 569.6,226.54 C569.6,226.54 569.6,226.85 569.6,227.4 C569.9,231.53 571.4,249.76 581.34,244.65 Z" id="Path" fill="#CED2DF"></path>
            <path d="M470.75,181.21 L445.75,181.21 C446.299823,185.184907 446.457248,189.204266 446.22,193.21 C453.996929,198.682457 464.160042,199.413339 472.64,195.11 C470.24,190.67 468.78,185.63 470.75,181.21 Z" id="Path" fill="#000000" opacity="0.1"></path>
            <circle id="Oval" fill="#EC8C9C" cx="460.92" cy="172.53" r="24.83"></circle>
            <path d="M455.76,168.11 C458.53,167.78 461.3,166.8 464.03,167.35 C466.51,167.85 468.62,169.56 471.1,170.08 C475.88,171.08 480.32,167.56 483.93,164.28 L491.73,157.18 C493.46,155.61 495.24,153.96 496.13,151.8 C497.02,149.64 496.71,146.8 494.81,145.44 C491.96,143.44 487.05,145.44 484.99,142.6 C484.06,141.32 484.2,139.6 483.72,138.07 C482.72,135.01 479.28,133.34 476.06,133.3 C472.84,133.26 469.76,134.44 466.68,135.3 C460.191511,137.182165 453.40745,137.830043 446.68,137.21 C444.864341,136.877569 442.998217,136.942388 441.21,137.4 C438.977806,138.352879 437.330213,140.308468 436.77,142.67 C435.23,148.11 437.86,156.88 440.5,161.75 C443.14,166.62 450.49,168.76 455.76,168.11 Z" id="Path" fill="#000000" opacity="0.1"></path>
            <path d="M455.76,167.43 C458.53,167.1 461.3,166.12 464.03,166.67 C466.51,167.17 468.62,168.88 471.1,169.4 C475.88,170.4 480.32,166.88 483.93,163.6 L491.73,156.5 C493.46,154.93 495.24,153.28 496.13,151.12 C497.02,148.96 496.71,146.12 494.81,144.76 C491.96,142.76 487.05,144.76 484.99,141.92 C484.06,140.64 484.2,138.92 483.72,137.39 C482.72,134.33 479.28,132.66 476.06,132.62 C472.84,132.58 469.76,133.76 466.68,134.62 C460.191511,136.502165 453.40745,137.150043 446.68,136.53 C444.864341,136.197569 442.998217,136.262388 441.21,136.72 C438.977806,137.672879 437.330213,139.628468 436.77,141.99 C435.23,147.43 437.86,156.2 440.5,161.07 C443.14,165.94 450.49,168.03 455.76,167.43 Z" id="Path" fill="#88455E"></path>
            <path d="M412.45,274.76 C412.45,274.76 417.89,275.44 420.61,278.84 C423.33,282.24 428.09,283.26 428.09,283.26" id="Path" fill="#000000" opacity="0.1"></path>
            <path d="M363.46,229.85 C363.46,229.85 367.9,239.76 365.16,240.76 C362.42,241.76 363.46,248.92 363.46,248.92" id="Path" fill="#000000" opacity="0.1"></path>
            <g id="Group" opacity="0.1" transform="translate(364.000000, 199.000000)" fill="#000000">
                <path d="M0.99,27.45 C0.99,27.45 29.9,21.67 30.9,21.67 C35.56,21.67 43.06,15.15 47.35,11.03 C48.6546339,9.78012376 50.2597069,8.88803385 52.01,8.44 L51.64,8.44 C48.7863904,8.35067438 46.0162061,9.40975656 43.95,11.38 C39.66,15.5 32.15,22.02 27.5,22.02 C26.69,22.02 8.19,25.69 0.68,27.18 L0.99,27.45 Z" id="Path"></path>
                <path d="M81.31,2.19 L81.31,0.92 C74.3553415,4.46612955 66.8714704,6.86056304 59.15,8.01 C66.8110904,7.32822189 74.3025859,5.36069014 81.31,2.19 Z" id="Path"></path>
                <path d="M45.56,133.58 C45.56,133.58 41.48,120.31 44.56,113.51 C47.64,106.71 51.36,75.41 51.36,75.41 L43.9,52.28 L29.57,52.28 L28.7,52.62 L40.45,52.62 L47.9,75.76 C47.9,75.76 44.16,107.06 41.1,113.86 C38.04,120.66 42.1,133.93 42.1,133.93 L68.97,132.93 L68.97,132.72 L45.56,133.58 Z" id="Path"></path>
            </g>
            <g id="Group" opacity="0.1" transform="translate(486.000000, 244.000000)" fill="#000000">
                <path d="M31.05,77.19 C30.4330634,77.7210792 29.7628274,78.1868932 29.05,78.58 C24.65,81.01 19.21,79.58 10.96,71.07 C3.4,63.24 1.2,51.07 0.61,46.46 L0.41,49.98 C0.41,49.98 1.41,66.65 10.96,76.51 C19.21,85.05 24.65,86.45 29.05,84.02 C29.7628274,83.6268932 30.4330634,83.1610792 31.05,82.63 C32.48,81.4 32.56,79.09 31.81,76.21 C31.6241096,76.5838008 31.3657704,76.9169224 31.05,77.19 Z" id="Path"></path>
                <path d="M90.53,1.16 L80.9,12.29 C80.0861609,13.2290248 79.1107724,14.0147545 78.02,14.61 C76.6224091,15.368963 75.0691098,15.7966335 73.48,15.86 C67.93,16.09 58.29,16.16 50.15,14.57 C39.1,12.42 30.81,7.5 24.56,10.31 C23.8458933,10.6208855 23.1739095,11.0207158 22.56,11.5 C22.56,11.5 17.07,28.64 17.91,40.31 C18.56,29.4 22.56,16.94 22.56,16.94 C23.1739095,16.4607158 23.8458933,16.0608855 24.56,15.75 C30.82,12.94 39.1,17.86 50.15,20.01 C58.29,21.59 67.92,21.52 73.48,21.3 C75.0691098,21.2366335 76.6224091,20.808963 78.02,20.05 C79.108357,19.4637262 80.0835875,18.6882825 80.9,17.76 L95.71,0.67 C94.1560154,1.63750742 92.2378393,1.81895652 90.53,1.16 Z" id="Path"></path>
            </g>
            <path d="M141.64,367.65 C141.883738,367.886181 142.253369,367.934923 142.55,367.77 C142.242393,367.775377 141.935698,367.734934 141.64,367.65 Z" id="Path" fill="url(#linearGradient-2)"></path>
            <path d="M243.55,202 C241.75,201.48 239.18,200.63 236.09,199.55 C239.301068,195.418805 241.650758,190.685421 243,185.63 L242.74,185.73 C242.83,185.42 242.92,185.12 243,184.8 C237.07,187.21 230.51,183.13 226.33,177.89 C222.15,172.65 219.33,166.15 214.75,161.33 C212.841352,159.412538 210.788685,157.644035 208.61,156.04 C207.26,155.04 205.81,153.91 204.16,153.86 C201.49,153.78 199.4,156.4 196.83,157.17 C195.138986,157.550599 193.378081,157.485125 191.72,156.98 C185.09,155.46 178.72,152.65 171.95,151.91 C168.327953,151.462649 164.651456,151.87724 161.22,153.12 C157.82,154.41 156.27,156.98 153.52,159.04 C150.52,161.25 144.66,161.2 141.17,161.59 C136.93498,162.073725 132.670547,162.250853 128.41,162.12 C125.961543,161.907697 123.496242,161.998382 121.07,162.39 C116,163.5 111.93,167.53 108.13,171.39 C107.092757,172.263205 106.346263,173.431782 105.99,174.74 C105.941243,175.108394 105.941243,175.481606 105.99,175.85 C105.951728,176.858185 106.125472,177.86318 106.5,178.8 C107.669746,182.271082 109.322655,185.560066 111.41,188.57 C112.96,190.79 114.77,192.88 115.65,195.51 C116.067142,196.802925 116.286288,198.151517 116.3,199.51 C116.256869,200.952511 116.106454,202.389813 115.85,203.81 C115.178988,207.736327 114.075609,211.576356 112.56,215.26 C111.619084,217.150919 110.971661,219.174119 110.64,221.26 C110.611404,221.686188 110.611404,222.113812 110.64,222.54 C110.39,229.14 117.05,233.89 118.34,240.45 C118.445989,240.994246 118.509514,241.545908 118.53,242.1 C118.39,246.19 116.06,250.19 112.62,251.78 C112.92,251.9 113.23,252 113.54,252.1 C113.244109,252.285772 112.936837,252.452768 112.62,252.6 C113.25,252.84 113.89,253.05 114.54,253.22 C110.630457,256.625218 107.344585,260.686028 104.83,265.22 C93.26,286.76 14.9,328.95 14.9,328.95 L16.06,329.61 L15.12,330.22 C8.34,334.73 -7.57,347.88 6.81,364.51 C6.81,364.51 18.04,346.79 25.91,339.24 C26.26,338.9 26.61,338.59 26.91,338.3 C27.2595427,338.838241 27.368302,339.498048 27.21,340.12 L78.73,311.17 C78.73,311.17 97.04,298.35 102.15,295.46 C105.746658,293.219198 109.660663,291.53358 113.76,290.46 L113.16,290.71 C115.086328,290.180128 117.072319,289.897855 119.07,289.87 C128.19,290.01 138.07,296.69 141.32,323.14 C145.68,358.56 143.66,364.95 142.26,365.82 C142.087403,365.807249 141.916536,365.777096 141.75,365.73 C141.793248,365.767877 141.840144,365.801374 141.89,365.83 C141.700314,365.816628 141.51259,365.783106 141.33,365.73 C141.534844,365.917987 141.8226,365.98614 142.09,365.91 C142.28138,365.967977 142.488335,365.942561 142.66,365.84 C142.889804,365.853415 143.120196,365.853415 143.35,365.84 C143.35,366.166667 143.326667,366.5 143.28,366.84 C143.21,366.84 142.87,367.03 143.28,367.05 C143.17,369.05 143.18,371.22 143.28,373.49 C138.75,373.74 134.22,374.01 130.28,374.25 L130.63,372.38 L130.79,371.54 C134.27,371.26 137.57,370.24 137.96,367.42 C138.81,361.22 130.3,357.91 123.06,357.5 C115.82,357.09 72.4,359.98 72.4,359.98 C72.4,359.98 65.89,368.41 86.54,370.98 C87.1533333,371.3 87.79,371.633333 88.45,371.98 C96.54,376.59 107.51,385.08 112.77,389.26 L113.5,389.84 L111.14,391.76 C123.91,394.65 136.26,443.45 143.07,465.76 C149.88,488.07 164.78,487.26 177.13,483.95 C188.7,480.85 190.13,447.25 190.32,443.03 L190.32,442.6 L210.9,468.02 L212.46,469.95 C213.06,470.263333 213.653333,470.556667 214.24,470.83 C229.82,478.24 247.03,464.03 242.14,447.83 C237.19,431.5 229.51,407.35 224.39,397.14 C220.1,388.59 214.56,374.39 211.2,365.5 C211.636298,365.324842 212.060555,365.121065 212.47,364.89 C212.47,364.89 212.39,364.49 212.26,363.76 L212.47,363.65 C212.47,363.65 207.47,337.93 207.25,319.65 C207.25,319.33 207.25,318.996667 207.25,318.65 C207.25,318.45 207.25,318.25 207.25,318.06 C210.97,317.21 213.33,316.88 213.33,316.88 L213.4,316.08 L212.97,316.17 L215.04,292.48 C215.04,292.48 222.64,276.31 216.82,269.58 C215.05063,267.611777 213.869164,265.186481 213.41,262.58 C212.41,256.39 213.41,246.06 226.96,237.48 C247.82,224.25 255.96,213.48 255.96,213.48 C255.96,213.48 256.32,205.76 243.55,202 Z M202.12,218.44 L202.12,207.49 C205.99,207.3 209.94,207.75 213.83,207.49 C215.739599,207.356587 217.631776,207.038433 219.48,206.54 L220.42,207.19 C214.728788,211.56759 208.595441,215.33809 202.12,218.44 Z M142.97,390.08 C144.5,391.14 146.04,392.24 147.55,393.35 C148.49,398.75 149.32,402.56 149.38,402.83 C147.654223,398.385575 145.507806,394.116181 142.97,390.08 Z" id="Shape" fill="url(#linearGradient-3)" fill-rule="nonzero"></path>
            <path d="M176.03,381.08 L175.13,385.97 L174.44,389.71 L173.18,396.55 L160.96,405.1 C160.96,405.1 159.86,404.16 158.04,402.67 C153.04,398.55 142.51,390.19 134.78,385.67 C132.793552,384.401589 130.643862,383.409165 128.39,382.72 L176.03,381.08 Z" id="Path" fill="#FFBDC6"></path>
            <path d="M176.03,381.08 L175.13,385.97 C172.436396,386.119826 169.734496,385.982385 167.07,385.56 L138.56,385.97 C137.21,385.89 135.95,385.78 134.77,385.66 C132.783552,384.391589 130.633862,383.399165 128.38,382.71 L176.03,381.08 Z" id="Path" fill="#000000" opacity="0.1"></path>
            <path d="M167.07,384.76 C167.07,384.76 181.33,387.2 182.14,381.09 C182.95,374.98 174.81,371.76 167.9,371.3 C160.99,370.84 119.42,373.76 119.42,373.76 C119.42,373.76 112.09,383.53 138.56,385.16 L167.07,384.76 Z" id="Path" fill="#7679B4"></path>
            <path d="M176.03,381.08 L175.13,385.97 L174.44,389.71 L173.18,396.55 L160.96,405.1 C160.96,405.1 159.86,404.16 158.04,402.67 C153.04,398.55 142.51,390.19 134.78,385.67 C132.793552,384.401589 130.643862,383.409165 128.39,382.72 L176.03,381.08 Z" id="Path" fill="#000000" opacity="0.1"></path>
            <path d="M176.03,381.08 L175.13,385.97 C172.436396,386.119826 169.734496,385.982385 167.07,385.56 L138.56,385.97 C137.21,385.89 135.95,385.78 134.77,385.66 C132.783552,384.391589 130.633862,383.399165 128.38,382.71 L176.03,381.08 Z" id="Path" fill="#000000" opacity="0.1"></path>
            <path d="M167.07,384.76 C167.07,384.76 181.33,387.2 182.14,381.09 C182.95,374.98 174.81,371.76 167.9,371.3 C160.99,370.84 119.42,373.76 119.42,373.76 C119.42,373.76 112.09,383.53 138.56,385.16 L167.07,384.76 Z" id="Path" fill="#000000" opacity="0.1"></path>
            <rect id="Rectangle" fill="#A66477" x="123.69" y="183.95" width="74.53" height="88.38"></rect>
            <rect id="Rectangle" fill="#000000" opacity="0.1" x="123.69" y="183.95" width="74.53" height="88.38"></rect>
            <path d="M36.33,335.26 C35.1,335.57 33.54,336.75 31.79,338.47 C24.26,345.91 13.52,363.36 13.52,363.36 C-0.24,346.98 14.99,334.03 21.52,329.58 C23.1,328.5 24.16,327.92 24.16,327.92 L36.33,335.26 Z" id="Path" fill="#FFBDC6"></path>
            <path d="M175.22,211.85 C175.22,211.85 178.89,237.51 191.51,243.62 C204.13,249.73 175.22,261.13 175.22,261.13 L135.71,246.47 C135.71,246.47 158.11,239.14 153.63,217.55 L175.22,211.85 Z" id="Path" fill="#FFBDC6"></path>
            <path d="M132.9,366.21 L132,371.1 L131.31,374.84 L130.05,381.68 L117.83,390.23 C117.83,390.23 116.73,389.29 114.91,387.8 C109.91,383.68 99.38,375.32 91.65,370.8 C89.6635524,369.531589 87.5138619,368.539165 85.26,367.85 L132.9,366.21 Z" id="Path" fill="#FFBDC6"></path>
            <path d="M132.9,366.21 L132,371.1 C129.306396,371.249826 126.604496,371.112385 123.94,370.69 L95.43,371.1 C94.08,371.02 92.82,370.91 91.64,370.79 C89.6535524,369.521589 87.5038619,368.529165 85.25,367.84 L132.9,366.21 Z" id="Path" fill="#000000" opacity="0.1"></path>
            <path d="M123.9,369.88 C123.9,369.88 138.16,372.32 138.97,366.21 C139.78,360.1 131.64,356.84 124.71,356.44 C117.78,356.04 76.24,358.88 76.24,358.88 C76.24,358.88 68.91,368.65 95.38,370.28 L123.9,369.88 Z" id="Path" fill="#7679B4"></path>
            <path d="M131.27,374.85 L130.01,381.69 L117.79,390.24 C117.79,390.24 116.69,389.3 114.87,387.81 L131.03,374.56 L131.27,374.85 Z" id="Path" fill="#000000" opacity="0.1"></path>
            <path d="M211.9,468.09 C211.34,467.816667 210.773333,467.526667 210.2,467.22 L208.71,465.32 L189.03,440.32 L189.03,440.76 C188.9,444.91 187.48,478.01 176.42,481.06 C164.61,484.32 150.35,485.13 143.84,463.14 C137.33,441.15 125.51,393.09 113.29,390.24 L131.41,375.37 C131.41,375.37 143.41,389.37 148.31,402.85 C148.13,401.99 139.84,363.28 146.68,356.44 L206.14,356.44 C206.14,356.44 215.3,382.58 221.62,395.54 C226.52,405.6 233.87,429.38 238.62,445.47 C243.32,461.39 226.9,475.39 211.9,468.09 Z" id="Path" fill="#7679B4"></path>
            <path d="M210.24,363.76 C201.07,369.19 160.75,366.98 147.61,366.1 L144.04,365.84 C143.65,365.84 144.1,365.62 144.1,365.62 L144.47,361.92 L154.24,337.08 L206.58,306.76 C205.52,309.95 205.16,314.84 205.25,320.45 C205.51,338.43 210.24,363.76 210.24,363.76 Z" id="Path" fill="#000000" opacity="0.1"></path>
            <path d="M210.24,362.55 C201.07,367.98 160.75,365.77 147.61,364.89 L144.04,364.63 L143.45,364.63 L144.1,364.46 L147.32,363.61 L154.24,335.91 L206.58,305.57 C205.52,308.76 205.16,313.65 205.25,319.26 C205.51,337.21 210.24,362.55 210.24,362.55 Z" id="Path" fill="#F2F1F2"></path>
            <path d="M205.25,319.22 C194.61,321.67 171.19,328.88 162.19,346.22 C156.19,357.8 151.19,362.77 147.62,364.85 L144.05,364.59 L144.11,364.37 L147.33,363.52 L154.25,335.82 L206.59,305.48 C205.51,308.76 205.16,313.61 205.25,319.22 Z" id="Path" fill="#000000" opacity="0.1"></path>
            <path d="M24.11,327.93 L36.33,335.26 C35.1,335.57 33.54,336.75 31.79,338.47 C30.79,335.47 24.37,331.35 21.47,329.59 C23.05,328.51 24.11,327.93 24.11,327.93 Z" id="Path" fill="#000000" opacity="0.1"></path>
            <path d="M141.9,365.1 C141.620244,365.255973 141.271492,365.211365 141.04,364.99 C141.319655,365.068966 141.609472,365.106036 141.9,365.1 Z" id="Path" fill="#000000" opacity="0.1"></path>
            <path d="M169.51,241.99 C169.51,241.99 158.51,243.21 150.77,235.07 C150.77,235.07 118.19,244.44 107.19,265.62 C96.19,286.8 21.25,328.34 21.25,328.34 C21.25,328.34 34.25,335.67 33.06,339.34 L82.34,310.83 C82.34,310.83 99.85,298.2 104.74,295.35 C109.63,292.5 136.51,274.99 142.21,322.64 C147.91,370.29 142.21,364.64 142.21,364.64 C142.21,364.64 150.36,367.49 162.21,344.64 C174.06,321.79 210.68,316.54 210.68,316.54 L212.68,292.54 C212.68,292.54 219.95,276.62 214.38,269.98 C212.681391,268.026178 211.553509,265.642403 211.12,263.09 C210.19,256.99 211.12,246.82 224.12,238.37 C244.12,225.37 251.82,214.75 251.82,214.75 C251.82,214.75 252.23,207.01 240.01,203.35 C227.79,199.69 178.1,179.73 178.1,179.73 L176.47,186.65 L215.57,214.35 C215.57,214.35 196.02,230.23 180.57,229.83 C180.51,229.76 183.36,241.58 169.51,241.99 Z" id="Path" fill="#565388"></path>
            <path d="M177.06,223.02 C176.09701,219.73819 175.345468,216.398003 174.81,213.02 L153.22,218.76 C154.16513,222.879881 153.996001,227.177143 152.73,231.21 C161.751022,233.616673 171.336118,230.386184 177.06,223.01 L177.06,223.02 Z" id="Path" fill="#000000" opacity="0.1"></path>
            <circle id="Oval" fill="#FFBDC6" cx="159.13" cy="207.57" r="23.22"></circle>
            <path d="M171.47,154.76 C177.91,155.49 184.04,158.26 190.38,159.76 C191.964143,160.256816 193.652083,160.322401 195.27,159.95 C197.73,159.19 199.73,156.61 202.27,156.69 C203.84,156.69 205.27,157.81 206.53,158.84 C208.617316,160.423641 210.579767,162.165442 212.4,164.05 C216.77,168.8 219.49,175.2 223.48,180.36 C227.47,185.52 233.76,189.54 239.43,187.17 C235.58,202.17 222.94,213.64 209.28,214.57 C203.83,214.94 198.28,213.81 192.97,215.41 C191.654075,215.946478 190.265441,216.283525 188.85,216.41 C185.85,216.41 183.37,213.62 181.47,210.91 C177.03,204.53 173.47,197.29 168.47,191.48 C166.82,189.56 164.87,187.73 162.54,187.38 C160.21,187.03 158.06,188.14 155.98,189.22 C152.55,191 149.04,192.84 146.38,195.88 C143.72,198.92 142.04,203.47 143.14,207.59 C143.73,209.81 145.09,211.81 145.14,214.14 C145.14,217.84 141.92,220.55 141.27,224.14 C141.126797,225.655515 141.07337,227.178175 141.11,228.7 C140.82,233.64 137.6,237.7 134.22,240.79 C132.91,242 131.45,243.29 131.07,245.16 C130.81,246.43 131.07,247.78 130.9,249.07 C130.41,252.28 127.21,253.9 124.38,254.32 C121.074772,254.804426 117.7002,254.40417 114.6,253.16 C118.6,251.29 120.99,245.96 120.07,241.16 C118.81,234.55 112.17,229.81 112.73,223.07 C113.043166,221.006002 113.663364,219.000471 114.57,217.12 C116.019073,213.483794 117.071825,209.701934 117.71,205.84 C118.364245,202.867672 118.299105,199.782068 117.52,196.84 C116.67,194.25 114.94,192.19 113.46,190 C111.455698,187.022702 109.873965,183.781834 108.76,180.37 C108.356335,179.361644 108.201966,178.270767 108.31,177.19 C108.632469,175.915085 109.329002,174.765806 110.31,173.89 C113.95,170.08 117.85,166.11 122.69,165.01 C125.002571,164.624773 127.354627,164.534051 129.69,164.74 C133.767264,164.869731 137.84853,164.695918 141.9,164.22 C145.24,163.83 150.9,163.88 153.72,161.7 C156.35,159.7 157.84,157.15 161.09,155.87 C164.406925,154.655688 167.971306,154.274526 171.47,154.76 Z" id="Path" fill="#000000" opacity="0.1"></path>
            <path d="M184.38,394.52 C184.38,394.52 197.82,420.99 193.75,429.14" id="Path" fill="#000000" opacity="0.1"></path>
            <path d="M208.75,465.32 L189.07,440.32 L189.07,440.76 C189.07,440.76 187.93,432.68 191.68,435.4 C199.89,441.34 213.03,451.08 213.31,452.76 C213.59,454.44 210.65,461.18 208.75,465.32 Z" id="Path" fill="#000000" opacity="0.1"></path>
            <g id="Group" opacity="0.1" transform="translate(21.000000, 179.000000)" fill="#000000">
                <path d="M159.9,50.76 C159.9,50.76 161.56,57.64 156.19,61.08 C164.46,59.66 164.82,53.23 164.57,50.43 C163.026387,50.679887 161.463415,50.7903325 159.9,50.76 Z" id="Path"></path>
                <path d="M5.15,147.71 C5.15,147.71 80.09,106.17 91.09,84.99 C98.98,69.79 117.99,60.68 128.09,56.74 C120.72,59.21 95.92,68.68 86.6,86.62 C75.6,107.8 0.66,149.34 0.66,149.34 L5.15,147.71 Z" id="Path"></path>
                <path d="M174.48,47.53 C187.23,43.53 199.42,33.66 199.42,33.66 L160.32,5.96 L161.21,2.16 L157.47,0.66 L155.84,7.58 L194.94,35.28 C188.665556,40.2122423 181.790657,44.3284452 174.48,47.53 Z" id="Path"></path>
                <path d="M174.73,141.39 C179.726024,139.684479 184.853094,138.39017 190.06,137.52 L190.13,136.73 C184.883789,137.88239 179.73498,139.440406 174.73,141.39 Z" id="Path"></path>
                <path d="M127.34,184.06 L126.98,184.06 C126.700244,184.215973 126.351492,184.171365 126.12,183.95 C126.399828,184.028115 126.689519,184.065169 126.98,184.06 C128.32,183.28 130.33,177.2 126.12,142 C121.62,104.42 103.96,107.37 94.29,111.69 C104.17,108.97 117.77,111.32 121.64,143.63 C125.85,178.83 123.84,184.92 122.5,185.69 C124.236881,185.625416 125.917905,185.059286 127.34,184.06 Z" id="Path"></path>
                <path d="M122.5,185.7 C122.209519,185.705169 121.919828,185.668115 121.64,185.59 C121.871492,185.811365 122.220244,185.855973 122.5,185.7 Z" id="Path"></path>
            </g>
            <path d="M171.47,153.97 C177.91,154.7 184.04,157.47 190.38,158.97 C191.964143,159.466816 193.652083,159.532401 195.27,159.16 C197.73,158.4 199.73,155.82 202.27,155.9 C203.84,155.9 205.27,157.02 206.53,158.05 C208.617316,159.633641 210.579767,161.375442 212.4,163.26 C216.77,168.01 219.49,174.41 223.48,179.57 C227.47,184.73 233.76,188.75 239.43,186.38 C235.58,201.38 222.94,212.85 209.28,213.78 C203.83,214.15 198.28,213.02 192.97,214.62 C191.654075,215.156478 190.265441,215.493525 188.85,215.62 C185.85,215.62 183.37,212.83 181.47,210.12 C177.03,203.74 173.47,196.5 168.47,190.69 C166.82,188.77 164.87,186.94 162.54,186.59 C160.21,186.24 158.06,187.35 155.98,188.43 C152.55,190.21 149.04,192.05 146.38,195.09 C143.72,198.13 142.04,202.68 143.14,206.8 C143.73,209.02 145.09,211.02 145.14,213.35 C145.14,217.05 141.92,219.76 141.27,223.35 C141.126797,224.865515 141.07337,226.388175 141.11,227.91 C140.82,232.85 137.6,236.91 134.22,240 C132.91,241.21 131.45,242.5 131.07,244.37 C130.81,245.64 131.07,246.99 130.9,248.28 C130.41,251.49 127.21,253.11 124.38,253.53 C121.074772,254.014426 117.7002,253.61417 114.6,252.37 C118.6,250.5 120.99,245.17 120.07,240.37 C118.81,233.76 112.17,229.02 112.73,222.28 C113.043166,220.216002 113.663364,218.210471 114.57,216.33 C116.019073,212.693794 117.071825,208.911934 117.71,205.05 C118.364245,202.077672 118.299105,198.992068 117.52,196.05 C116.67,193.46 114.94,191.4 113.46,189.21 C111.455698,186.232702 109.873965,182.991834 108.76,179.58 C108.356335,178.571644 108.201966,177.480767 108.31,176.4 C108.632469,175.125085 109.329002,173.975806 110.31,173.1 C113.95,169.29 117.85,165.32 122.69,164.22 C125.002571,163.834773 127.354627,163.744051 129.69,163.95 C133.767264,164.079731 137.84853,163.905918 141.9,163.43 C145.24,163.04 150.9,163.09 153.72,160.91 C156.35,158.91 157.84,156.36 161.09,155.08 C164.406925,153.865688 167.971306,153.484526 171.47,153.97 Z" id="Path" fill="#A66477"></path>
            <path d="M834.5,101.85 C834.5,101.72 834.5,101.6 834.5,101.48 C834.5,101.36 834.5,101.22 834.44,101.1 L834.28,101.1 C834.28,100.83 834.28,100.56 834.28,100.27 C833.88,91 821.06,71.27 815.92,77.03 C811.42,82.09 818.21,94.89 821.67,100.65 L821.98,101.17 L821.81,101.06 C821.81,101.06 807.5,143.74 805.81,145.4 C804.12,147.06 792.34,180.62 776.81,184.4 C773.74,185.13 771.19,185.79 769.05,186.4 L769.22,185.83 C770.22,182.56 771.45,179.47 771.95,175.83 C772.45,172.19 771.95,167.78 770.11,166.01 C769.21,165.13 768.11,165.01 767.37,163.61 C766.88961,162.382109 766.632241,161.078331 766.61,159.76 L765.29,143.58 L766.21,143.3 C771.77,141.52 777.16,137.3 777.79,131.62 C777.596738,131.693456 777.399809,131.756874 777.2,131.81 C777.27333,131.479715 777.330068,131.145963 777.37,130.81 C772.7,132.65 768.37,127.81 763.87,125.64 C756.46,122.01 747.99,125.43 740.34,126.26 C731.67,127.21 723.44,123.61 714.58,124.26 C709.76,124.63 704.4,127.9 704.66,132.65 C704.81,135.26 706.66,137.47 707.42,139.97 C709.34,146.02 705.07,152.09 701.33,157.25 C698.87,160.64 696.51,164.77 696.09,168.75 C687.48,159.75 678.17,149.35 677.09,145.44 L652.18,102.76 C652.18,102.76 651.59,103.39 650.64,104.32 C650.49,103.86 650.31,103.32 650.11,102.78 C646.93,93.87 637.93,72.28 626.52,76.24 C615.11,80.2 631.25,102.33 638.27,111.15 L639.27,112.37 C638.681276,112.514627 638.063376,112.486856 637.49,112.29 L665.27,159.94 C665.27,159.94 670.32,169.06 674.95,171.54 C674.95,171.54 709.46,215.05 709.88,223.75 C710.3,232.45 725.4,255.66 725.4,255.66 C725.4,255.66 730.45,293.37 721.61,300 L721.72,300 L721.79,300 L721.9,300 L722,300 L722.2,300 L722.33,300 L722.46,300 L722.63,300 L722.77,300 L722.97,300 L723.07,300 C722.65,300.41 722.22,300.86 721.78,301.35 C715.23,308.61 706.86,324.17 718.3,350.63 C735.13,389.63 737.66,404.91 737.66,404.91 C737.66,404.91 705.66,406.57 699.36,407.81 C693.78,408.91 672.09,409.68 667.13,409.81 C665.36,407.75 660.13,403.19 653.07,409.81 C644.23,418.1 637.92,445.81 637.92,445.81 C637.92,445.81 634.55,468.19 645.92,462.38 C645.92,462.38 659.39,443.73 663.17,442.9 C665.05,442.49 667.04,439.72 668.56,437.05 L668.64,437.1 C668.73,437.1 669.1,436.9 669.7,436.66 C672.5,435.55 680.21,432.88 686.29,434.21 C689.62,434.94 703.9,435.11 718.87,435.07 C715.49,443.17 709.43,464.07 709.43,464.07 C709.43,464.07 706.9,483.56 715.3,482.76 C721.3,482.17 730.5,466.84 735.3,458.09 C738.78,455.54 748.75,446.4 756.12,447.09 L805.78,428.03 C805.78,428.03 817.56,421.4 811.25,399.44 C806.25,381.98 792.02,346.24 786.4,332.31 L786.23,331.95 C784.87,328.58 784.05,326.58 784.05,326.58 C781.74118,320.220662 780.226387,313.60058 779.54,306.87 C779.49,306.34 779.45,305.8 779.41,305.27 C780.10555,304.978074 780.760874,304.598322 781.36,304.14 C781.36,304.14 776.73,257.32 781.36,252.34 L781.44,252.25 L781.44,252.19 L781.52,252.09 L781.7,251.86 L781.92,251.58 C782.17,251.25 782.47,250.84 782.81,250.34 C785.46,246.46 790.4,237.6 788.98,227.14 C788.92,226.686667 788.846667,226.23 788.76,225.77 C788.215979,222.933313 787.24494,220.195524 785.88,217.65 C785.679963,216.59024 785.556311,215.517479 785.51,214.44 C785.51,213.83 785.51,213.16 785.51,212.44 L785.51,212.32 C785.51,212.126667 785.51,211.933333 785.51,211.74 L785.51,211.6 C785.51,211.13 785.59,210.6 785.66,210.16 L785.66,209.98 C785.66,209.8 785.69,209.616667 785.75,209.43 L785.75,209.2 C785.75,209.02 785.83,208.84 785.87,208.66 L785.87,208.47 C785.93,208.23 785.99,207.99 786.07,207.75 L786.07,207.63 C786.13,207.43 786.196667,207.233333 786.27,207.04 L786.36,206.81 L786.56,206.33 L786.66,206.09 C786.74,205.91 786.83,205.73 786.92,205.55 L786.99,205.4 C787.11,205.18 787.236667,204.963333 787.37,204.75 L787.48,204.58 L787.81,204.11 L787.97,203.9 L788.32,203.48 L788.48,203.3 C788.66,203.11 788.84,202.92 789.04,202.74 C794.51,197.74 818.92,160.89 818.92,160.89 C818.92,160.89 824.81,152.6 824.81,147.22 C825.14,147.1 835.55,112.4 834.5,101.85 Z M768.97,411.6 C768.37,405.92 767.77,398.88 767.22,391.6 L776.74,406.44 C776.74,406.44 775.84,410.96 768.97,411.6 Z" id="Shape" fill="url(#linearGradient-4)" fill-rule="nonzero"></path>
            <path d="M669.71,408.46 C669.71,408.46 664.01,399.46 655.45,407.65 C646.89,415.84 640.79,443.08 640.79,443.08 C640.79,443.08 637.53,465.08 648.53,459.37 C648.53,459.37 661.53,441.04 665.23,440.23 C668.93,439.42 672.97,429.23 672.97,429.23 L669.71,408.46 Z" id="Path" fill="#493545"></path>
            <path d="M730.8,430.45 C730.8,430.45 723.06,426.78 720.62,429.64 C718.18,432.5 710.03,461 710.03,461 C710.03,461 707.59,479.74 715.73,478.92 C723.87,478.1 738.13,448.76 738.13,448.76 L730.8,430.45 Z" id="Path" fill="#493545"></path>
            <path d="M730.8,430.45 C730.8,430.45 723.06,426.78 720.62,429.64 C718.18,432.5 710.03,461 710.03,461 C710.03,461 707.59,479.74 715.73,478.92 C723.87,478.1 738.13,448.76 738.13,448.76 L730.8,430.45 Z" id="Path" fill="#000000" opacity="0.05"></path>
            <path d="M757.68,375.06 L775.19,402.35 C775.19,402.35 773.97,408.46 763.38,407.24 L727.13,430.05 C727.13,430.05 723.98,457.82 734.05,455.3 C735.68,454.89 747.05,443.08 755.23,443.9 L803.3,425.16 C803.3,425.16 814.7,418.64 808.59,397.06 C802.48,375.48 782.28,325.44 782.28,325.44 L750.35,343.3 L757.68,375.06 Z" id="Path" fill="#3E3D77"></path>
            <path d="M757.68,375.06 L775.19,402.35 C775.19,402.35 773.97,408.46 763.38,407.24 L727.13,430.05 C727.13,430.05 723.98,457.82 734.05,455.3 C735.68,454.89 747.05,443.08 755.23,443.9 L803.3,425.16 C803.3,425.16 814.7,418.64 808.59,397.06 C802.48,375.48 782.28,325.44 782.28,325.44 L750.35,343.3 L757.68,375.06 Z" id="Path" fill="#000000" opacity="0.05"></path>
            <path d="M768.68,415.38 C771.12,430.86 757.28,432.08 757.28,432.08 C757.28,432.08 694.96,433.3 687.63,431.67 C680.3,430.04 670.52,434.52 670.52,434.52 C657.89,426.78 668.08,407.64 668.08,407.64 C668.08,407.64 694.15,406.83 700.26,405.64 C706.37,404.45 737.32,402.76 737.32,402.76 C737.32,402.76 734.88,387.69 718.58,349.41 C707.51,323.41 715.58,308.11 721.95,300.98 C723.575481,299.088036 725.456945,297.432078 727.54,296.06 L777.64,298.5 C777.586093,301.026631 777.679585,303.554255 777.92,306.07 C778.776499,314.706965 781.022069,323.148956 784.57,331.07 C781.72,331.07 763.39,348.18 763.39,348.18 C763.39,348.18 766.23,399.91 768.68,415.38 Z" id="Path" fill="#3E3D77"></path>
            <path d="M671.74,409.27 C671.74,409.27 697.81,408.46 703.92,407.27 C710.03,406.08 740.98,404.42 740.98,404.42 C740.98,404.42 738.54,389.35 722.24,351.07 C711.17,325.07 719.24,309.77 725.61,302.64 C727.235481,300.748036 729.116945,299.092078 731.2,297.72 L777.62,299.98 C777.62,299.5 777.62,298.98 777.62,298.53 L727.52,296.09 C725.436945,297.462078 723.555481,299.118036 721.93,301.01 C715.59,308.15 707.49,323.44 718.56,349.44 C734.9,387.69 737.32,402.76 737.32,402.76 C737.32,402.76 706.32,404.39 700.26,405.61 C694.2,406.83 668.08,407.61 668.08,407.61 C668.08,407.61 657.9,426.76 670.52,434.53 C670.52,434.53 670.9,434.35 671.52,434.09 C663.13,425.46 671.74,409.27 671.74,409.27 Z" id="Path" fill="#000000" opacity="0.1"></path>
            <rect id="Rectangle" fill="#493545" x="721.02" y="146.57" width="25.25" height="63.94"></rect>
            <rect id="Rectangle" fill="#000000" opacity="0.1" x="721.02" y="146.57" width="25.25" height="63.94"></rect>
            <path d="M760.71,137.19 C761.58,137.43 762.56,137.46 763.15,138.66 C763.51633,139.619031 763.715875,140.633669 763.74,141.66 L765.33,161.42 C765.35243,162.713716 765.602936,163.993329 766.07,165.2 C766.74,166.54 767.85,166.7 768.72,167.56 C770.47,169.3 770.98,173.66 770.5,177.21 C770.02,180.76 768.81,183.8 767.86,187.01 C766.5,191.61 765.6,196.78 763.69,200.66 C761.78,204.54 758.31,206.66 756.07,203.4 C753.83,200.14 754.13,193.56 753.71,188.17 C753.01,179.17 749.5,171.41 749.26,162.35 C749.06,155.02 751.03,148.18 752.26,141.23 C753.14,136.46 753.19,130.67 754.47,126.38 C755.54,131.48 757.58,136.33 760.71,137.19 Z" id="Path" fill="#493545"></path>
            <path d="M760.71,137.19 C761.58,137.43 762.56,137.46 763.15,138.66 C763.51633,139.619031 763.715875,140.633669 763.74,141.66 L765.33,161.42 C765.35243,162.713716 765.602936,163.993329 766.07,165.2 C766.74,166.54 767.85,166.7 768.72,167.56 C770.47,169.3 770.98,173.66 770.5,177.21 C770.02,180.76 768.81,183.8 767.86,187.01 C766.5,191.61 765.6,196.78 763.69,200.66 C761.78,204.54 758.31,206.66 756.07,203.4 C753.83,200.14 754.13,193.56 753.71,188.17 C753.01,179.17 749.5,171.41 749.26,162.35 C749.06,155.02 751.03,148.18 752.26,141.23 C753.14,136.46 753.19,130.67 754.47,126.38 C755.54,131.48 757.58,136.33 760.71,137.19 Z" id="Path" fill="#000000" opacity="0.1"></path>
            <path d="M653.82,109.1 L644.05,117.25 C644.05,117.25 642.89,115.89 641.16,113.69 C634.37,105.02 618.76,83.27 629.79,79.38 C640.82,75.49 649.54,96.7 652.62,105.46 C653.4,107.68 653.82,109.1 653.82,109.1 Z" id="Path" fill="#C77485"></path>
            <path d="M830.18,106.25 C826.11,112.36 820.41,106.25 820.41,106.25 C820.41,106.25 819.68,105.16 818.65,103.4 C815.3,97.73 808.73,85.16 813.08,80.18 C818.08,74.49 830.47,93.91 830.85,103.02 C830.967694,104.140129 830.733511,105.2691 830.18,106.25 Z" id="Path" fill="#C77485"></path>
            <path d="M729.98,172.23 C729.98,172.23 738.13,198.3 735.68,206.03 C733.23,213.76 753.2,222.76 753.2,222.76 L776.01,222.76 C776.01,222.76 784.16,206.06 782.12,201.17 C780.08,196.28 762.57,192.62 762.57,192.62 C762.57,192.62 752.39,192.62 752.8,165.33 L729.98,172.23 Z" id="Path" fill="#C77485"></path>
            <path d="M653.82,109.1 L644.05,117.25 C644.05,117.25 642.89,115.89 641.16,113.69 C644.71,113.06 650.22,107.88 652.63,105.46 C653.4,107.68 653.82,109.1 653.82,109.1 Z" id="Path" fill="#000000" opacity="0.1"></path>
            <path d="M830.18,106.25 C826.11,112.36 820.41,106.25 820.41,106.25 C820.41,106.25 819.68,105.16 818.65,103.4 L818.78,102.99 C821.42,104.88 829.63,103.27 830.85,102.99 C830.974082,104.120041 830.739695,105.26049 830.18,106.25 Z" id="Path" fill="#000000" opacity="0.1"></path>
            <path d="M777.9,306.06 C765.3,311.81 724.36,301.57 721.9,300.96 C723.525481,299.068036 725.406945,297.412078 727.49,296.04 L777.59,298.48 C777.545672,301.010547 777.649182,303.541523 777.9,306.06 Z" id="Path" fill="#000000" opacity="0.1"></path>
            <path d="M735.28,194.63 C735.28,194.63 725.51,197.89 711.66,185.26 C711.66,185.26 680.66,154.71 678.66,147.38 L654.66,105.38 C654.66,105.38 644.48,116.38 640.4,114.75 L667.28,161.59 C667.28,161.59 672.17,170.59 676.65,172.99 C676.65,172.99 710.05,215.76 710.45,224.31 C710.85,232.86 725.5,255.76 725.5,255.76 C725.5,255.76 730.39,292.82 721.83,299.34 C721.83,299.34 769.48,311.56 779.66,303.41 C779.66,303.41 775.18,257.41 779.66,252.5 C779.66,252.5 793.51,236.21 784.14,218.29 C784.14,218.29 782.14,208.52 787.4,203.63 C792.66,198.74 816.32,162.49 816.32,162.49 C816.32,162.49 822.02,154.34 822.02,149.05 C822.02,149.05 832.61,113.21 831.02,103.84 C831.02,103.84 821.65,105.84 818.8,103.84 C818.8,103.84 804.95,145.84 803.32,147.42 C801.69,149 790.32,182.04 775.22,185.71 C760.12,189.38 757.71,191 757.71,191 C757.71,191 787.03,209.33 772.78,217.47 C758.53,225.61 735.28,194.63 735.28,194.63 Z" id="Path" fill="#FFAAC4"></path>
            <path d="M753.79,178.5 C753.306174,174.663346 753.108962,170.795968 753.2,166.93 L730.39,173.85 C730.990197,175.369548 731.468377,176.934499 731.82,178.53 C734.43,179.68 737.95,182.4 740.98,182.4 C745.563458,182.549839 750.067642,181.178541 753.79,178.5 Z" id="Path" fill="#000000" opacity="0.1"></path>
            <circle id="Oval" fill="#C77485" cx="740.57" cy="160.01" r="21.18"></circle>
            <path d="M715.37,127.38 C710.71,127.74 705.51,130.96 705.77,135.63 C705.91,138.2 707.67,140.37 708.44,142.83 C710.29,148.78 706.17,154.75 702.55,159.83 C698.93,164.91 695.55,171.64 698.65,177.02 C699.533615,178.315271 700.488416,179.560518 701.51,180.75 C705.34,185.92 705.29,192.9 706.99,199.11 C711.497855,215.606073 728.111,225.703915 744.83,222.11 C741.798793,218.24072 740.287199,213.396507 740.58,208.49 C740.81,204.93 741.96,201.21 740.58,197.92 C738.8,193.69 733.58,192.02 730.89,188.32 C728.2,184.62 728.38,179.49 729.68,175.08 C730.98,170.67 733.23,166.58 734.31,162.08 C734.576573,160.767081 734.910345,159.468707 735.31,158.19 C737.19,152.85 742.81,149.75 748.31,148.42 C753.81,147.09 759.59,147.01 764.96,145.26 C770.33,143.51 775.55,139.41 776.17,133.78 C771.65,135.59 767.46,130.87 763.1,128.7 C755.92,125.14 747.73,128.49 740.33,129.31 C731.9,130.25 723.9,126.76 715.37,127.38 Z" id="Path" fill="#000000" opacity="0.1"></path>
            <path d="M714.96,126.57 C710.3,126.93 705.1,130.15 705.36,134.82 C705.5,137.39 707.26,139.56 708.03,142.02 C709.88,147.97 705.76,153.94 702.14,159.02 C698.52,164.1 695.14,170.83 698.24,176.21 C699.123615,177.505271 700.078416,178.750518 701.1,179.94 C704.93,185.11 704.88,192.09 706.58,198.3 C711.087855,214.796073 727.701,224.893915 744.42,221.3 C741.388793,217.43072 739.877199,212.586507 740.17,207.68 C740.4,204.12 741.55,200.4 740.17,197.11 C738.39,192.88 733.17,191.21 730.48,187.51 C727.79,183.81 727.97,178.68 729.27,174.27 C730.57,169.86 732.82,165.77 733.9,161.27 C734.166573,159.957081 734.500345,158.658707 734.9,157.38 C736.78,152.04 742.4,148.94 747.9,147.61 C753.4,146.28 759.18,146.2 764.55,144.45 C769.92,142.7 775.14,138.6 775.76,132.97 C771.24,134.78 767.05,130.06 762.69,127.89 C755.51,124.33 747.32,127.68 739.92,128.5 C731.51,129.43 723.54,125.9 714.96,126.57 Z" id="Path" fill="#493545"></path>
            <path d="M761.55,207.06 C761.55,207.06 770.03,214.63 771.7,217.97" id="Path" fill="#000000" opacity="0.1"></path>
            <path d="M779.9,252.27 C779.9,252.27 769.31,252.27 764.42,253.49 C759.53,254.71 747.72,253.49 747.72,253.49" id="Path" fill="#000000" opacity="0.1"></path>
            <g id="Group" opacity="0.1" transform="translate(640.000000, 103.000000)" fill="#000000">
                <path d="M132.75,114.44 C131.837062,114.962465 130.848664,115.340283 129.82,115.56 C132.476179,116.148864 135.255888,115.750747 137.64,114.44 C151.9,106.29 122.57,87.97 122.57,87.97 L117.68,87.97 C117.68,87.97 147.01,106.3 132.75,114.44 Z" id="Path"></path>
                <path d="M191.09,1.55 C191.09,1.29 191.03,1.04 190.99,0.81 C189.314982,1.15712574 187.622551,1.41416159 185.92,1.58 C187.638743,1.76904241 189.373567,1.75897573 191.09,1.55 Z" id="Path"></path>
                <path d="M86.73,196.31 C95.28,189.79 90.4,152.73 90.4,152.73 C90.4,152.73 75.74,129.92 75.33,121.37 C74.92,112.82 41.53,70.05 41.53,70.05 C37.05,67.61 32.16,58.65 32.16,58.65 C32.16,58.65 4.46,13.44 0.39,11.81 L27.27,58.65 C27.27,58.65 32.16,67.65 36.64,70.05 C36.64,70.05 70.04,112.82 70.44,121.37 C70.84,129.92 85.5,152.76 85.5,152.76 C85.5,152.76 90.39,189.82 81.83,196.34 C81.83,196.34 111.12,203.85 128.68,203.17 C111.08,202.55 86.73,196.31 86.73,196.31 Z" id="Path"></path>
                <path d="M95.52,91.95 L95.28,91.64 C95.001279,91.7224424 94.7172963,91.7859209 94.43,91.83 C94.81,91.88 95.17,91.92 95.52,91.95 Z" id="Path"></path>
            </g>
            <g id="Group" opacity="0.1" transform="translate(779.000000, 103.000000)" fill="#000000">
                <path d="M51.99,0.76 L51.74,0.81 C51.31,13.32 42.63,42.71 42.63,42.71 C42.63,48 36.93,56.15 36.93,56.15 C36.93,56.15 13.31,92.4 8.01,97.29 C2.71,102.18 4.75,111.95 4.75,111.95 L4.8,112.05 C4.64,108.76 5.04,103.66 8.41,100.54 C13.7,95.65 37.33,59.4 37.33,59.4 C37.33,59.4 43.03,51.25 43.03,45.96 C43.03,46.02 53.62,10.18 51.99,0.76 Z" id="Path"></path>
                <path d="M0.27,146.21 C0.88,149.67 0.47,146.01 0.68,149.47 C0.68,149.47 10.68,137.74 7.95,123.24 C8.77,136.2 0.27,146.21 0.27,146.21 Z" id="Path"></path>
            </g>
            <ellipse id="Oval" fill="#A00065" opacity="0.1" cx="470.79" cy="620.44" rx="427.67" ry="41.08"></ellipse>
            <path d="M305.01,578.76 C305.01,578.76 290.45,529.31 307.74,492.92 C315.093491,477.700886 317.311165,460.506899 314.06,443.92 C312.454122,436.057429 310.131074,428.358568 307.12,420.92" id="Path" stroke="#535461" stroke-width="2"></path>
            <path d="M317.9,397.94 C317.9,404 306.9,421.57 306.9,421.57 C306.9,421.57 295.9,404 295.9,397.94 C295.595622,393.827136 297.617385,389.889545 301.137117,387.740176 C304.656849,385.590808 309.083151,385.590808 312.602883,387.740176 C316.122615,389.889545 318.144378,393.827136 317.84,397.94 L317.9,397.94 Z" id="Path" fill="#A00065"></path>
            <path d="M336.01,431.5 C332.72,436.59 313.96,445.37 313.96,445.37 C313.96,445.37 314.3,424.66 317.59,419.57 C319.578995,415.968389 323.41163,413.777835 327.524375,413.891977 C331.637121,414.006119 335.342359,416.405875 337.128533,420.112259 C338.914706,423.818644 338.483182,428.21198 336.01,431.5 Z" id="Path" fill="#A00065"></path>
            <path d="M335.22,488.87 C329.81,491.6 309.22,489.71 309.22,489.71 C309.22,489.71 319.97,472 325.38,469.27 C328.915161,467.147465 333.340493,467.180281 336.843788,469.35501 C340.347082,471.529739 342.339909,475.481104 342.00619,479.590989 C341.672471,483.700873 339.068259,487.278962 335.26,488.86 L335.22,488.87 Z" id="Path" fill="#A00065"></path>
            <path d="M324.85,532.13 C319.98,535.73 299.32,537.36 299.32,537.36 C299.32,537.36 306.92,518.09 311.8,514.48 C316.667695,511.522146 322.98819,512.769412 326.367351,517.354674 C329.746511,521.939935 329.066468,528.346328 324.8,532.12 L324.85,532.13 Z" id="Path" fill="#A00065"></path>
            <path d="M290.9,446.55 C295.25,450.77 315.5,455.15 315.5,455.15 C315.5,455.15 310.5,435.04 306.19,430.81 C303.448807,427.737211 299.22096,426.452753 295.233719,427.481385 C291.246478,428.510018 288.167651,431.679458 287.255074,435.69485 C286.342497,439.710242 287.749014,443.899065 290.9,446.55 Z" id="Path" fill="#A00065"></path>
            <path d="M279.43,497.31 C284.84,500.04 305.43,498.15 305.43,498.15 C305.43,498.15 294.72,480.44 289.31,477.76 C283.98904,475.550949 277.865051,477.821759 275.270681,482.965859 C272.676311,488.109959 274.490617,494.38436 279.43,497.35 L279.43,497.31 Z" id="Path" fill="#A00065"></path>
            <path d="M275.03,548.17 C279.9,551.77 300.56,553.4 300.56,553.4 C300.56,553.4 292.96,534.13 288.08,530.52 C284.960804,527.761085 280.55108,527.00008 276.687605,528.553965 C272.82413,530.107851 270.169341,533.710195 269.829034,537.860519 C269.488726,542.010843 271.52125,545.997526 275.08,548.16 L275.03,548.17 Z" id="Path" fill="#A00065"></path>
            <path d="M317.9,397.94 C317.9,404 306.9,421.57 306.9,421.57 C306.9,421.57 295.9,404 295.9,397.94 C295.595622,393.827136 297.617385,389.889545 301.137117,387.740176 C304.656849,385.590808 309.083151,385.590808 312.602883,387.740176 C316.122615,389.889545 318.144378,393.827136 317.84,397.94 L317.9,397.94 Z" id="Path" fill="#A00065" opacity="0.1"></path>
            <path d="M336.01,431.5 C332.72,436.59 313.96,445.37 313.96,445.37 C313.96,445.37 314.3,424.66 317.59,419.57 C319.578995,415.968389 323.41163,413.777835 327.524375,413.891977 C331.637121,414.006119 335.342359,416.405875 337.128533,420.112259 C338.914706,423.818644 338.483182,428.21198 336.01,431.5 Z" id="Path" fill="#A00065" opacity="0.1"></path>
            <path d="M335.22,488.87 C329.81,491.6 309.22,489.71 309.22,489.71 C309.22,489.71 319.97,472 325.38,469.27 C328.915161,467.147465 333.340493,467.180281 336.843788,469.35501 C340.347082,471.529739 342.339909,475.481104 342.00619,479.590989 C341.672471,483.700873 339.068259,487.278962 335.26,488.86 L335.22,488.87 Z" id="Path" fill="#A00065" opacity="0.1"></path>
            <path d="M324.85,532.13 C319.98,535.73 299.32,537.36 299.32,537.36 C299.32,537.36 306.92,518.09 311.8,514.48 C316.667695,511.522146 322.98819,512.769412 326.367351,517.354674 C329.746511,521.939935 329.066468,528.346328 324.8,532.12 L324.85,532.13 Z" id="Path" fill="#A00065" opacity="0.1"></path>
            <path d="M290.9,446.55 C295.25,450.77 315.5,455.15 315.5,455.15 C315.5,455.15 310.5,435.04 306.19,430.81 C303.448807,427.737211 299.22096,426.452753 295.233719,427.481385 C291.246478,428.510018 288.167651,431.679458 287.255074,435.69485 C286.342497,439.710242 287.749014,443.899065 290.9,446.55 Z" id="Path" fill="#A00065" opacity="0.1"></path>
            <path d="M279.43,497.31 C284.84,500.04 305.43,498.15 305.43,498.15 C305.43,498.15 294.72,480.44 289.31,477.76 C283.98904,475.550949 277.865051,477.821759 275.270681,482.965859 C272.676311,488.109959 274.490617,494.38436 279.43,497.35 L279.43,497.31 Z" id="Path" fill="#A00065" opacity="0.1"></path>
            <path d="M275.03,548.17 C279.9,551.77 300.56,553.4 300.56,553.4 C300.56,553.4 292.96,534.13 288.08,530.52 C284.960804,527.761085 280.55108,527.00008 276.687605,528.553965 C272.82413,530.107851 270.169341,533.710195 269.829034,537.860519 C269.488726,542.010843 271.52125,545.997526 275.08,548.16 L275.03,548.17 Z" id="Path" fill="#A00065" opacity="0.1"></path>
            <path d="M599.65,579.47 C599.65,579.47 585.09,530.02 602.38,493.63 C609.733491,478.410886 611.951165,461.216899 608.7,444.63 C607.094122,436.767429 604.771074,429.068568 601.76,421.63" id="Path" stroke="#535461" stroke-width="2"></path>
            <path d="M612.52,398.64 C612.52,404.7 601.52,422.27 601.52,422.27 C601.52,422.27 590.52,404.7 590.52,398.64 C590.945127,392.895539 595.72983,388.45185 601.49,388.45185 C607.25017,388.45185 612.034873,392.895539 612.46,398.64 L612.52,398.64 Z" id="Path" fill="#A00065"></path>
            <path d="M630.66,432.2 C627.37,437.29 608.61,446.07 608.61,446.07 C608.61,446.07 608.95,425.36 612.24,420.27 C614.228995,416.668389 618.06163,414.477835 622.174375,414.591977 C626.287121,414.706119 629.992359,417.105875 631.778533,420.812259 C633.564706,424.518644 633.133182,428.91198 630.66,432.2 Z" id="Path" fill="#A00065"></path>
            <path d="M629.9,489.57 C624.49,492.3 603.9,490.41 603.9,490.41 C603.9,490.41 614.65,472.7 620.06,469.97 C623.599757,467.827521 628.042356,467.852635 631.557665,470.034996 C635.072973,472.217356 637.066276,476.187755 636.716429,480.310582 C636.366582,484.433409 633.732772,488.011169 629.9,489.57 Z" id="Path" fill="#A00065"></path>
            <path d="M619.49,532.83 C614.62,536.43 593.96,538.06 593.96,538.06 C593.96,538.06 601.56,518.79 606.44,515.18 C611.307695,512.222146 617.62819,513.469412 621.007351,518.054674 C624.386511,522.639935 623.706468,529.046328 619.44,532.82 L619.49,532.83 Z" id="Path" fill="#A00065"></path>
            <path d="M585.56,447.25 C589.91,451.47 610.16,455.85 610.16,455.85 C610.16,455.85 605.16,435.74 600.85,431.51 C598.108807,428.437211 593.88096,427.152753 589.893719,428.181385 C585.906478,429.210018 582.827651,432.379458 581.915074,436.39485 C581.002497,440.410242 582.409014,444.599065 585.56,447.25 Z" id="Path" fill="#A00065"></path>
            <path d="M574.07,498.01 C579.48,500.74 600.07,498.85 600.07,498.85 C600.07,498.85 589.32,481.14 583.91,478.41 C578.58904,476.200949 572.465051,478.471759 569.870681,483.615859 C567.276311,488.759959 569.090617,495.03436 574.03,498 L574.07,498.01 Z" id="Path" fill="#A00065"></path>
            <path d="M569.68,548.87 C574.55,552.47 595.21,554.1 595.21,554.1 C595.21,554.1 587.61,534.83 582.73,531.22 C577.862305,528.262146 571.54181,529.509412 568.162649,534.094674 C564.783489,538.679935 565.463532,545.086328 569.73,548.86 L569.68,548.87 Z" id="Path" fill="#A00065"></path>
            <path d="M612.52,398.64 C612.52,404.7 601.52,422.27 601.52,422.27 C601.52,422.27 590.52,404.7 590.52,398.64 C590.945127,392.895539 595.72983,388.45185 601.49,388.45185 C607.25017,388.45185 612.034873,392.895539 612.46,398.64 L612.52,398.64 Z" id="Path" fill="#A00065" opacity="0.1"></path>
            <path d="M630.66,432.2 C627.37,437.29 608.61,446.07 608.61,446.07 C608.61,446.07 608.95,425.36 612.24,420.27 C614.228995,416.668389 618.06163,414.477835 622.174375,414.591977 C626.287121,414.706119 629.992359,417.105875 631.778533,420.812259 C633.564706,424.518644 633.133182,428.91198 630.66,432.2 Z" id="Path" fill="#A00065" opacity="0.1"></path>
            <path d="M629.9,489.57 C624.49,492.3 603.9,490.41 603.9,490.41 C603.9,490.41 614.65,472.7 620.06,469.97 C623.599757,467.827521 628.042356,467.852635 631.557665,470.034996 C635.072973,472.217356 637.066276,476.187755 636.716429,480.310582 C636.366582,484.433409 633.732772,488.011169 629.9,489.57 Z" id="Path" fill="#A00065" opacity="0.1"></path>
            <path d="M619.49,532.83 C614.62,536.43 593.96,538.06 593.96,538.06 C593.96,538.06 601.56,518.79 606.44,515.18 C611.307695,512.222146 617.62819,513.469412 621.007351,518.054674 C624.386511,522.639935 623.706468,529.046328 619.44,532.82 L619.49,532.83 Z" id="Path" fill="#A00065" opacity="0.1"></path>
            <path d="M585.56,447.25 C589.91,451.47 610.16,455.85 610.16,455.85 C610.16,455.85 605.16,435.74 600.85,431.51 C598.108807,428.437211 593.88096,427.152753 589.893719,428.181385 C585.906478,429.210018 582.827651,432.379458 581.915074,436.39485 C581.002497,440.410242 582.409014,444.599065 585.56,447.25 Z" id="Path" fill="#A00065" opacity="0.1"></path>
            <path d="M574.07,498.01 C579.48,500.74 600.07,498.85 600.07,498.85 C600.07,498.85 589.32,481.14 583.91,478.41 C578.58904,476.200949 572.465051,478.471759 569.870681,483.615859 C567.276311,488.759959 569.090617,495.03436 574.03,498 L574.07,498.01 Z" id="Path" fill="#A00065" opacity="0.1"></path>
            <path d="M569.68,548.87 C574.55,552.47 595.21,554.1 595.21,554.1 C595.21,554.1 587.61,534.83 582.73,531.22 C577.862305,528.262146 571.54181,529.509412 568.162649,534.094674 C564.783489,538.679935 565.463532,545.086328 569.73,548.86 L569.68,548.87 Z" id="Path" fill="#A00065" opacity="0.1"></path>
            <path d="M670.9,15.31 L664.62,15.31 C666.240198,15.3873058 667.771529,14.5669414 668.604771,13.1752784 C669.438013,11.7836153 669.438013,10.0463847 668.604771,8.65472163 C667.771529,7.26305858 666.240198,6.44269418 664.62,6.52 L613.7,6.52 C611.354142,6.63192981 609.509702,8.56647328 609.509702,10.915 C609.509702,13.2635267 611.354142,15.1980702 613.7,15.31 L619.98,15.31 C617.634142,15.4219298 615.789702,17.3564733 615.789702,19.705 C615.789702,22.0535267 617.634142,23.9880702 619.98,24.1 L611.19,24.1 C609.569802,24.0226942 608.038471,24.8430586 607.205229,26.2347216 C606.371987,27.6263847 606.371987,29.3636153 607.205229,30.7552784 C608.038471,32.1469414 609.569802,32.9673058 611.19,32.89 L662.07,32.89 C663.690198,32.9673058 665.221529,32.1469414 666.054771,30.7552784 C666.888013,29.3636153 666.888013,27.6263847 666.054771,26.2347216 C665.221529,24.8430586 663.690198,24.0226942 662.07,24.1 L670.9,24.1 C673.245858,23.9880702 675.090298,22.0535267 675.090298,19.705 C675.090298,17.3564733 673.245858,15.4219298 670.9,15.31 Z" id="Path" fill="#DEE3F3" opacity="0.5"></path>
            <path d="M376.68,40.95 L371.9,40.95 C373.138695,41.017753 374.313421,40.3954315 374.953158,39.332562 C375.592896,38.2696926 375.592896,36.9403074 374.953158,35.877438 C374.313421,34.8145685 373.138695,34.192247 371.9,34.26 L333.18,34.26 C331.40359,34.3571644 330.012962,35.8259348 330.012962,37.605 C330.012962,39.3840652 331.40359,40.8528356 333.18,40.95 L337.96,40.95 C336.721305,40.882247 335.546579,41.5045685 334.906842,42.567438 C334.267104,43.6303074 334.267104,44.9596926 334.906842,46.022562 C335.546579,47.0854315 336.721305,47.707753 337.96,47.64 L331.27,47.64 C330.031305,47.572247 328.856579,48.1945685 328.216842,49.257438 C327.577104,50.3203074 327.577104,51.6496926 328.216842,52.712562 C328.856579,53.7754315 330.031305,54.397753 331.27,54.33 L369.99,54.33 C371.228695,54.397753 372.403421,53.7754315 373.043158,52.712562 C373.682896,51.6496926 373.682896,50.3203074 373.043158,49.257438 C372.403421,48.1945685 371.228695,47.572247 369.99,47.64 L376.68,47.64 C378.45641,47.5428356 379.847038,46.0740652 379.847038,44.295 C379.847038,42.5159348 378.45641,41.0471644 376.68,40.95 Z" id="Path" fill="#DEE3F3" opacity="0.5"></path>
            <path d="M51.68,514.76 C51.68,514.76 69.18,549.11 54.92,567.9 C40.66,586.69 56.22,637.9 56.22,637.9" id="Path" stroke="#A00065"></path>
            <path d="M56.9,504.02 C56.9,510.64 52.04,516.02 52.04,516.02 C52.04,516.02 47.18,510.65 47.18,504.02 C47.18,497.39 52.04,492.02 52.04,492.02 C52.04,492.02 56.9,497.4 56.9,504.02 Z" id="Path" fill="#A00065"></path>
            <path d="M60.75,514.76 C60.75,514.76 43.25,549.11 57.51,567.9 C71.77,586.69 56.21,637.9 56.21,637.9" id="Path" stroke="#A00065"></path>
            <path d="M55.57,504.02 C55.57,510.64 60.43,516.02 60.43,516.02 C60.43,516.02 65.29,510.65 65.29,504.02 C65.29,497.39 60.43,492.02 60.43,492.02 C60.43,492.02 55.57,497.4 55.57,504.02 Z" id="Path" fill="#A00065"></path>
            <path d="M55.57,504.02 C55.57,510.64 60.43,516.02 60.43,516.02 C60.43,516.02 65.29,510.65 65.29,504.02 C65.29,497.39 60.43,492.02 60.43,492.02 C60.43,492.02 55.57,497.4 55.57,504.02 Z" id="Path" fill="#000000" opacity="0.1"></path>
            <path d="M67.9,514.76 C67.9,514.76 85.4,549.11 71.14,567.9 C56.88,586.69 72.44,637.9 72.44,637.9" id="Path" stroke="#A00065"></path>
            <path d="M73.07,504.02 C73.07,510.64 68.21,516.02 68.21,516.02 C68.21,516.02 63.35,510.65 63.35,504.02 C63.35,497.39 68.21,492.02 68.21,492.02 C68.21,492.02 73.07,497.4 73.07,504.02 Z" id="Path" fill="#A00065"></path>
            <path d="M70.34,531.54 C65.75,536.31 58.52,536.81 58.52,536.81 C58.52,536.81 58.74,529.57 63.33,524.81 C67.92,520.05 75.15,519.54 75.15,519.54 C75.15,519.54 74.9,526.76 70.34,531.54 Z" id="Path" fill="#A00065"></path>
            <path d="M70.8,555.24 C66.21,560.01 58.98,560.51 58.98,560.51 C58.98,560.51 59.2,553.27 63.79,548.51 C68.38,543.75 75.61,543.24 75.61,543.24 C75.61,543.24 75.39,550.46 70.8,555.24 Z" id="Path" fill="#A00065"></path>
            <path d="M45.9,568.27 C50.24,573.27 50.09,580.51 50.09,580.51 C50.09,580.51 42.9,579.64 38.56,574.64 C34.22,569.64 34.37,562.4 34.37,562.4 C34.37,562.4 41.56,563.27 45.9,568.27 Z" id="Path" fill="#A00065"></path>
            <path d="M49.9,517.76 C55.42,521.42 57.21,528.44 57.21,528.44 C57.21,528.44 50.05,529.53 44.53,525.87 C39.01,522.21 37.22,515.19 37.22,515.19 C37.22,515.19 44.41,514.08 49.9,517.76 Z" id="Path" fill="#A00065"></path>
            <path d="M49.9,517.76 C55.42,521.42 57.21,528.44 57.21,528.44 C57.21,528.44 50.05,529.53 44.53,525.87 C39.01,522.21 37.22,515.19 37.22,515.19 C37.22,515.19 44.41,514.08 49.9,517.76 Z" id="Path" fill="#000000" opacity="0.1"></path>
            <path d="M76.95,514.76 C76.95,514.76 59.45,549.11 73.71,567.9 C87.97,586.69 72.41,637.9 72.41,637.9" id="Path" stroke="#A00065"></path>
            <path d="M71.77,504.02 C71.77,510.64 76.63,516.02 76.63,516.02 C76.63,516.02 81.49,510.65 81.49,504.02 C81.49,497.39 76.63,492.02 76.63,492.02 C76.63,492.02 71.77,497.4 71.77,504.02 Z" id="Path" fill="#A00065"></path>
            <path d="M71.77,504.02 C71.77,510.64 76.63,516.02 76.63,516.02 C76.63,516.02 81.49,510.65 81.49,504.02 C81.49,497.39 76.63,492.02 76.63,492.02 C76.63,492.02 71.77,497.4 71.77,504.02 Z" id="Path" fill="#000000" opacity="0.1"></path>
            <path d="M73.17,532.05 C68.52,536.77 68.17,544.05 68.17,544.05 C68.17,544.05 75.4,543.64 80.05,538.92 C84.7,534.2 85.05,526.92 85.05,526.92 C85.05,526.92 77.82,527.33 73.17,532.05 Z" id="Path" fill="#A00065"></path>
            <path d="M73.17,532.05 C68.52,536.77 68.17,544.05 68.17,544.05 C68.17,544.05 75.4,543.64 80.05,538.92 C84.7,534.2 85.05,526.92 85.05,526.92 C85.05,526.92 77.82,527.33 73.17,532.05 Z" id="Path" fill="#000000" opacity="0.1"></path>
            <path d="M82.28,564.86 C77.63,569.58 77.28,576.86 77.28,576.86 C77.28,576.86 84.51,576.45 89.16,571.73 C93.81,567.01 94.16,559.73 94.16,559.73 C94.16,559.73 86.9,560.14 82.28,564.86 Z" id="Path" fill="#A00065"></path>
            <path d="M68.9,557.65 C68.9,557.65 79.43,541.05 94.22,540.65" id="Path" stroke="#A00065"></path>
            <path d="M60.67,547.62 C60.67,547.62 50.14,531.02 35.35,530.62" id="Path" stroke="#A00065"></path>
            <path d="M59.3,571.32 C59.3,571.32 69.83,554.72 84.62,554.32" id="Path" stroke="#A00065"></path>
            <circle id="Oval" fill="#A00065" cx="93.71" cy="540.56" r="2.73"></circle>
            <circle id="Oval" fill="#A00065" cx="35.61" cy="530.76" r="2.73"></circle>
            <path d="M67.05,576.76 C67.05,576.76 56.52,560.16 41.73,559.76" id="Path" stroke="#A00065"></path>
            <circle id="Oval" fill="#A00065" cx="41.99" cy="559.92" r="2.73"></circle>
            <circle id="Oval" fill="#A00065" cx="84.82" cy="554.46" r="2.73"></circle>
            <path d="M125.28,617.91 C125.28,617.91 99.9,612.83 93.12,606.06 C86.34,599.29 55.9,587.45 52.51,595.91 C49.12,604.37 6.82,633.14 35.59,638.22 C64.36,643.3 103.28,644.99 111.74,641.6 C120.2,638.21 125.28,617.91 125.28,617.91 Z" id="Path" fill="#A8A8A8"></path>
            <path d="M35.59,635.07 C64.36,640.15 103.28,641.84 111.74,638.45 C118.18,635.87 122.66,623.45 124.43,617.73 L125.28,617.91 C125.28,617.91 120.2,638.22 111.74,641.6 C103.28,644.98 64.36,643.29 35.59,638.22 C27.29,636.75 24.91,633.31 25.81,628.96 C26.51,631.76 29.41,633.98 35.59,635.07 Z" id="Path" fill="#000000" opacity="0.2"></path>
            <path d="M895.83,522.54 C895.83,522.54 904.21,533.54 891.96,550.04 C879.71,566.54 869.61,580.55 873.7,590.87 C873.7,590.87 892.18,560.14 907.22,559.71 C922.26,559.28 912.38,541.01 895.83,522.54 Z" id="Path" fill="#A00065"></path>
            <path d="M895.83,522.54 C896.560244,523.599775 897.136012,524.758045 897.54,525.98 C912.22,543.22 920.03,559.31 905.93,559.72 C892.79,560.1 877.03,583.59 873.25,589.53 C873.374731,589.988032 873.524966,590.438735 873.7,590.88 C873.7,590.88 892.18,560.15 907.22,559.72 C922.26,559.29 912.38,541.01 895.83,522.54 Z" id="Path" fill="#000000" opacity="0.1"></path>
            <path d="M911.41,536.5 C911.41,540.36 910.98,543.5 910.41,543.5 C909.84,543.5 909.41,540.37 909.41,536.5 C909.41,532.63 909.95,534.5 910.48,534.5 C911.01,534.5 911.41,532.65 911.41,536.5 Z" id="Path" fill="#FFD037"></path>
            <path d="M916.76,541.11 C913.37,542.96 910.42,544.11 910.17,543.6 C909.92,543.09 912.45,541.25 915.84,539.41 C919.23,537.57 917.89,538.91 918.15,539.41 C918.41,539.91 920.14,539.26 916.76,541.11 Z" id="Path" fill="#FFD037"></path>
            <path d="M851.57,522.54 C851.57,522.54 843.19,533.54 855.44,550.04 C867.69,566.54 877.79,580.55 873.7,590.87 C873.7,590.87 855.22,560.14 840.18,559.71 C825.14,559.28 835.02,541.01 851.57,522.54 Z" id="Path" fill="#A00065"></path>
            <path d="M851.57,522.54 C850.839756,523.599775 850.263988,524.758045 849.86,525.98 C835.18,543.22 827.37,559.31 841.47,559.72 C854.61,560.1 870.37,583.59 874.15,589.53 C874.025269,589.988032 873.875034,590.438735 873.7,590.88 C873.7,590.88 855.22,560.15 840.18,559.72 C825.14,559.29 835.02,541.01 851.57,522.54 Z" id="Path" fill="#000000" opacity="0.1"></path>
            <path d="M835.99,536.5 C835.99,540.36 836.42,543.5 836.99,543.5 C837.56,543.5 837.99,540.37 837.99,536.5 C837.99,532.63 837.45,534.5 836.92,534.5 C836.39,534.5 835.99,532.65 835.99,536.5 Z" id="Path" fill="#FFD037"></path>
            <path d="M830.64,541.11 C834.03,542.96 836.98,544.11 837.23,543.6 C837.48,543.09 834.95,541.25 831.56,539.41 C828.17,537.57 829.51,538.91 829.25,539.41 C828.99,539.91 827.25,539.26 830.64,541.11 Z" id="Path" fill="#FFD037"></path>
            <path d="M838.66,589.43 C838.66,589.43 862.09,588.71 869.15,583.68 C876.21,578.65 905.15,572.68 906.94,580.68 C908.73,588.68 942.15,620.79 915.7,621 C889.25,621.21 854.24,616.88 847.19,612.59 C840.14,608.3 838.66,589.43 838.66,589.43 Z" id="Path" fill="#A8A8A8"></path>
            <path d="M916.17,618.23 C889.72,618.44 854.71,614.11 847.66,609.82 C842.29,606.55 840.15,594.82 839.44,589.41 L838.66,589.41 C838.66,589.41 840.14,608.31 847.19,612.6 C854.24,616.89 889.25,621.23 915.7,621.01 C923.34,620.95 925.97,618.23 925.83,614.21 C924.77,616.66 921.9,618.18 916.17,618.23 Z" id="Path" fill="#000000" opacity="0.2"></path>
        </g>
    </g>
</svg>